G04 #@! TF.GenerationSoftware,KiCad,Pcbnew,9.0.7*
G04 #@! TF.CreationDate,2026-02-04T18:18:03+11:00*
G04 #@! TF.ProjectId,g3507-base,67333530-372d-4626-9173-652e6b696361,rev?*
G04 #@! TF.SameCoordinates,Original*
G04 #@! TF.FileFunction,Paste,Top*
G04 #@! TF.FilePolarity,Positive*
%FSLAX46Y46*%
G04 Gerber Fmt 4.6, Leading zero omitted, Abs format (unit mm)*
G04 Created by KiCad (PCBNEW 9.0.7) date 2026-02-04 18:18:03*
%MOMM*%
%LPD*%
G01*
G04 APERTURE LIST*
G04 Aperture macros list*
%AMRoundRect*
0 Rectangle with rounded corners*
0 $1 Rounding radius*
0 $2 $3 $4 $5 $6 $7 $8 $9 X,Y pos of 4 corners*
0 Add a 4 corners polygon primitive as box body*
4,1,4,$2,$3,$4,$5,$6,$7,$8,$9,$2,$3,0*
0 Add four circle primitives for the rounded corners*
1,1,$1+$1,$2,$3*
1,1,$1+$1,$4,$5*
1,1,$1+$1,$6,$7*
1,1,$1+$1,$8,$9*
0 Add four rect primitives between the rounded corners*
20,1,$1+$1,$2,$3,$4,$5,0*
20,1,$1+$1,$4,$5,$6,$7,0*
20,1,$1+$1,$6,$7,$8,$9,0*
20,1,$1+$1,$8,$9,$2,$3,0*%
G04 Aperture macros list end*
%ADD10RoundRect,0.250000X0.450000X-0.350000X0.450000X0.350000X-0.450000X0.350000X-0.450000X-0.350000X0*%
%ADD11RoundRect,0.250000X-0.337500X-0.475000X0.337500X-0.475000X0.337500X0.475000X-0.337500X0.475000X0*%
%ADD12RoundRect,0.075000X-0.662500X-0.075000X0.662500X-0.075000X0.662500X0.075000X-0.662500X0.075000X0*%
%ADD13RoundRect,0.075000X-0.075000X-0.662500X0.075000X-0.662500X0.075000X0.662500X-0.075000X0.662500X0*%
%ADD14RoundRect,0.250000X0.450000X-0.325000X0.450000X0.325000X-0.450000X0.325000X-0.450000X-0.325000X0*%
%ADD15R,1.000000X2.000000*%
%ADD16R,1.050000X2.000000*%
%ADD17RoundRect,0.250000X-0.350000X-0.450000X0.350000X-0.450000X0.350000X0.450000X-0.350000X0.450000X0*%
G04 APERTURE END LIST*
D10*
X113000000Y-79000000D03*
X113000000Y-77000000D03*
D11*
X119880000Y-77780000D03*
X121955000Y-77780000D03*
X113425000Y-73500000D03*
X115500000Y-73500000D03*
X115425000Y-77780000D03*
X117500000Y-77780000D03*
X119425000Y-60500000D03*
X121500000Y-60500000D03*
D12*
X114087500Y-84750000D03*
X114087500Y-85250000D03*
X114087500Y-85750000D03*
X114087500Y-86250000D03*
X114087500Y-86750000D03*
X114087500Y-87250000D03*
X114087500Y-87750000D03*
X114087500Y-88250000D03*
X114087500Y-88750000D03*
X114087500Y-89250000D03*
X114087500Y-89750000D03*
X114087500Y-90250000D03*
D13*
X115500000Y-91662500D03*
X116000000Y-91662500D03*
X116500000Y-91662500D03*
X117000000Y-91662500D03*
X117500000Y-91662500D03*
X118000000Y-91662500D03*
X118500000Y-91662500D03*
X119000000Y-91662500D03*
X119500000Y-91662500D03*
X120000000Y-91662500D03*
X120500000Y-91662500D03*
X121000000Y-91662500D03*
D12*
X122412500Y-90250000D03*
X122412500Y-89750000D03*
X122412500Y-89250000D03*
X122412500Y-88750000D03*
X122412500Y-88250000D03*
X122412500Y-87750000D03*
X122412500Y-87250000D03*
X122412500Y-86750000D03*
X122412500Y-86250000D03*
X122412500Y-85750000D03*
X122412500Y-85250000D03*
X122412500Y-84750000D03*
D13*
X121000000Y-83337500D03*
X120500000Y-83337500D03*
X120000000Y-83337500D03*
X119500000Y-83337500D03*
X119000000Y-83337500D03*
X118500000Y-83337500D03*
X118000000Y-83337500D03*
X117500000Y-83337500D03*
X117000000Y-83337500D03*
X116500000Y-83337500D03*
X116000000Y-83337500D03*
X115500000Y-83337500D03*
D10*
X118000000Y-71000000D03*
X118000000Y-69000000D03*
D14*
X114475000Y-69525000D03*
X114475000Y-67475000D03*
D15*
X118025000Y-64000000D03*
D16*
X122500000Y-64000000D03*
D17*
X120000000Y-74000000D03*
X122000000Y-74000000D03*
X113000000Y-64000000D03*
X115000000Y-64000000D03*
D14*
X121500000Y-69525000D03*
X121500000Y-67475000D03*
D17*
X113000000Y-61000000D03*
X115000000Y-61000000D03*
M02*
