%TF.GenerationSoftware,KiCad,Pcbnew,9.0.7*%
%TF.CreationDate,2026-02-04T18:11:02+11:00*%
%TF.ProjectId,g3507-base,67333530-372d-4626-9173-652e6b696361,rev?*%
%TF.SameCoordinates,Original*%
%TF.FileFunction,Drillmap*%
%TF.FilePolarity,Positive*%
%FSLAX45Y45*%
G04 Gerber Fmt 4.5, Leading zero omitted, Abs format (unit mm)*
G04 Created by KiCad (PCBNEW 9.0.7) date 2026-02-04 18:11:02*
%MOMM*%
%LPD*%
G01*
G04 APERTURE LIST*
%ADD10C,0.038100*%
%ADD11C,0.200000*%
G04 APERTURE END LIST*
D10*
X10700000Y-9600000D02*
X12900000Y-9600000D01*
X12900000Y-9600000D02*
X12900000Y-5500000D01*
X10700000Y-5500000D02*
X10700000Y-9600000D01*
X12900000Y-5500000D02*
X10700000Y-5500000D01*
D11*
X10958872Y-9913389D02*
X10958872Y-9713389D01*
X10958872Y-9713389D02*
X11006491Y-9713389D01*
X11006491Y-9713389D02*
X11035062Y-9722913D01*
X11035062Y-9722913D02*
X11054110Y-9741960D01*
X11054110Y-9741960D02*
X11063634Y-9761008D01*
X11063634Y-9761008D02*
X11073158Y-9799103D01*
X11073158Y-9799103D02*
X11073158Y-9827675D01*
X11073158Y-9827675D02*
X11063634Y-9865770D01*
X11063634Y-9865770D02*
X11054110Y-9884817D01*
X11054110Y-9884817D02*
X11035062Y-9903865D01*
X11035062Y-9903865D02*
X11006491Y-9913389D01*
X11006491Y-9913389D02*
X10958872Y-9913389D01*
X11158872Y-9913389D02*
X11158872Y-9780055D01*
X11158872Y-9818151D02*
X11168396Y-9799103D01*
X11168396Y-9799103D02*
X11177919Y-9789579D01*
X11177919Y-9789579D02*
X11196967Y-9780055D01*
X11196967Y-9780055D02*
X11216015Y-9780055D01*
X11282681Y-9913389D02*
X11282681Y-9780055D01*
X11282681Y-9713389D02*
X11273157Y-9722913D01*
X11273157Y-9722913D02*
X11282681Y-9732436D01*
X11282681Y-9732436D02*
X11292205Y-9722913D01*
X11292205Y-9722913D02*
X11282681Y-9713389D01*
X11282681Y-9713389D02*
X11282681Y-9732436D01*
X11406491Y-9913389D02*
X11387443Y-9903865D01*
X11387443Y-9903865D02*
X11377919Y-9884817D01*
X11377919Y-9884817D02*
X11377919Y-9713389D01*
X11511253Y-9913389D02*
X11492205Y-9903865D01*
X11492205Y-9903865D02*
X11482681Y-9884817D01*
X11482681Y-9884817D02*
X11482681Y-9713389D01*
X11739824Y-9913389D02*
X11739824Y-9713389D01*
X11739824Y-9713389D02*
X11806491Y-9856246D01*
X11806491Y-9856246D02*
X11873157Y-9713389D01*
X11873157Y-9713389D02*
X11873157Y-9913389D01*
X12054110Y-9913389D02*
X12054110Y-9808627D01*
X12054110Y-9808627D02*
X12044586Y-9789579D01*
X12044586Y-9789579D02*
X12025538Y-9780055D01*
X12025538Y-9780055D02*
X11987443Y-9780055D01*
X11987443Y-9780055D02*
X11968396Y-9789579D01*
X12054110Y-9903865D02*
X12035062Y-9913389D01*
X12035062Y-9913389D02*
X11987443Y-9913389D01*
X11987443Y-9913389D02*
X11968396Y-9903865D01*
X11968396Y-9903865D02*
X11958872Y-9884817D01*
X11958872Y-9884817D02*
X11958872Y-9865770D01*
X11958872Y-9865770D02*
X11968396Y-9846722D01*
X11968396Y-9846722D02*
X11987443Y-9837198D01*
X11987443Y-9837198D02*
X12035062Y-9837198D01*
X12035062Y-9837198D02*
X12054110Y-9827675D01*
X12149348Y-9780055D02*
X12149348Y-9980055D01*
X12149348Y-9789579D02*
X12168396Y-9780055D01*
X12168396Y-9780055D02*
X12206491Y-9780055D01*
X12206491Y-9780055D02*
X12225538Y-9789579D01*
X12225538Y-9789579D02*
X12235062Y-9799103D01*
X12235062Y-9799103D02*
X12244586Y-9818151D01*
X12244586Y-9818151D02*
X12244586Y-9875294D01*
X12244586Y-9875294D02*
X12235062Y-9894341D01*
X12235062Y-9894341D02*
X12225538Y-9903865D01*
X12225538Y-9903865D02*
X12206491Y-9913389D01*
X12206491Y-9913389D02*
X12168396Y-9913389D01*
X12168396Y-9913389D02*
X12149348Y-9903865D01*
X12330300Y-9894341D02*
X12339824Y-9903865D01*
X12339824Y-9903865D02*
X12330300Y-9913389D01*
X12330300Y-9913389D02*
X12320777Y-9903865D01*
X12320777Y-9903865D02*
X12330300Y-9894341D01*
X12330300Y-9894341D02*
X12330300Y-9913389D01*
X12330300Y-9789579D02*
X12339824Y-9799103D01*
X12339824Y-9799103D02*
X12330300Y-9808627D01*
X12330300Y-9808627D02*
X12320777Y-9799103D01*
X12320777Y-9799103D02*
X12330300Y-9789579D01*
X12330300Y-9789579D02*
X12330300Y-9808627D01*
M02*
