G04 #@! TF.GenerationSoftware,KiCad,Pcbnew,9.0.7*
G04 #@! TF.CreationDate,2026-02-04T18:18:03+11:00*
G04 #@! TF.ProjectId,g3507-base,67333530-372d-4626-9173-652e6b696361,rev?*
G04 #@! TF.SameCoordinates,Original*
G04 #@! TF.FileFunction,Soldermask,Top*
G04 #@! TF.FilePolarity,Negative*
%FSLAX46Y46*%
G04 Gerber Fmt 4.6, Leading zero omitted, Abs format (unit mm)*
G04 Created by KiCad (PCBNEW 9.0.7) date 2026-02-04 18:18:03*
%MOMM*%
%LPD*%
G01*
G04 APERTURE LIST*
G04 APERTURE END LIST*
G36*
X127850000Y-94830000D02*
G01*
X126150000Y-94830000D01*
X126150000Y-93130000D01*
X127850000Y-93130000D01*
X127850000Y-94830000D01*
G37*
G36*
X109466742Y-93166601D02*
G01*
X109620687Y-93230367D01*
X109759234Y-93322941D01*
X109877059Y-93440766D01*
X109969633Y-93579313D01*
X110033399Y-93733258D01*
X110065907Y-93896685D01*
X110065907Y-94063315D01*
X110033399Y-94226742D01*
X109969633Y-94380687D01*
X109877059Y-94519234D01*
X109759234Y-94637059D01*
X109620687Y-94729633D01*
X109466742Y-94793399D01*
X109303315Y-94825907D01*
X109136685Y-94825907D01*
X108973258Y-94793399D01*
X108819313Y-94729633D01*
X108680766Y-94637059D01*
X108562941Y-94519234D01*
X108470367Y-94380687D01*
X108406601Y-94226742D01*
X108374093Y-94063315D01*
X108374093Y-93896685D01*
X108406601Y-93733258D01*
X108470367Y-93579313D01*
X108562941Y-93440766D01*
X108680766Y-93322941D01*
X108819313Y-93230367D01*
X108973258Y-93166601D01*
X109136685Y-93134093D01*
X109303315Y-93134093D01*
X109466742Y-93166601D01*
G37*
G36*
X115603701Y-90930709D02*
G01*
X115628033Y-90946967D01*
X115644291Y-90971299D01*
X115650000Y-91000000D01*
X115650000Y-92325000D01*
X115644291Y-92353701D01*
X115628033Y-92378033D01*
X115603701Y-92394291D01*
X115575000Y-92400000D01*
X115425000Y-92400000D01*
X115396299Y-92394291D01*
X115371967Y-92378033D01*
X115355709Y-92353701D01*
X115350000Y-92325000D01*
X115350000Y-91000000D01*
X115355709Y-90971299D01*
X115371967Y-90946967D01*
X115396299Y-90930709D01*
X115425000Y-90925000D01*
X115575000Y-90925000D01*
X115603701Y-90930709D01*
G37*
G36*
X116103701Y-90930709D02*
G01*
X116128033Y-90946967D01*
X116144291Y-90971299D01*
X116150000Y-91000000D01*
X116150000Y-92325000D01*
X116144291Y-92353701D01*
X116128033Y-92378033D01*
X116103701Y-92394291D01*
X116075000Y-92400000D01*
X115925000Y-92400000D01*
X115896299Y-92394291D01*
X115871967Y-92378033D01*
X115855709Y-92353701D01*
X115850000Y-92325000D01*
X115850000Y-91000000D01*
X115855709Y-90971299D01*
X115871967Y-90946967D01*
X115896299Y-90930709D01*
X115925000Y-90925000D01*
X116075000Y-90925000D01*
X116103701Y-90930709D01*
G37*
G36*
X116603701Y-90930709D02*
G01*
X116628033Y-90946967D01*
X116644291Y-90971299D01*
X116650000Y-91000000D01*
X116650000Y-92325000D01*
X116644291Y-92353701D01*
X116628033Y-92378033D01*
X116603701Y-92394291D01*
X116575000Y-92400000D01*
X116425000Y-92400000D01*
X116396299Y-92394291D01*
X116371967Y-92378033D01*
X116355709Y-92353701D01*
X116350000Y-92325000D01*
X116350000Y-91000000D01*
X116355709Y-90971299D01*
X116371967Y-90946967D01*
X116396299Y-90930709D01*
X116425000Y-90925000D01*
X116575000Y-90925000D01*
X116603701Y-90930709D01*
G37*
G36*
X117103701Y-90930709D02*
G01*
X117128033Y-90946967D01*
X117144291Y-90971299D01*
X117150000Y-91000000D01*
X117150000Y-92325000D01*
X117144291Y-92353701D01*
X117128033Y-92378033D01*
X117103701Y-92394291D01*
X117075000Y-92400000D01*
X116925000Y-92400000D01*
X116896299Y-92394291D01*
X116871967Y-92378033D01*
X116855709Y-92353701D01*
X116850000Y-92325000D01*
X116850000Y-91000000D01*
X116855709Y-90971299D01*
X116871967Y-90946967D01*
X116896299Y-90930709D01*
X116925000Y-90925000D01*
X117075000Y-90925000D01*
X117103701Y-90930709D01*
G37*
G36*
X117603701Y-90930709D02*
G01*
X117628033Y-90946967D01*
X117644291Y-90971299D01*
X117650000Y-91000000D01*
X117650000Y-92325000D01*
X117644291Y-92353701D01*
X117628033Y-92378033D01*
X117603701Y-92394291D01*
X117575000Y-92400000D01*
X117425000Y-92400000D01*
X117396299Y-92394291D01*
X117371967Y-92378033D01*
X117355709Y-92353701D01*
X117350000Y-92325000D01*
X117350000Y-91000000D01*
X117355709Y-90971299D01*
X117371967Y-90946967D01*
X117396299Y-90930709D01*
X117425000Y-90925000D01*
X117575000Y-90925000D01*
X117603701Y-90930709D01*
G37*
G36*
X118103701Y-90930709D02*
G01*
X118128033Y-90946967D01*
X118144291Y-90971299D01*
X118150000Y-91000000D01*
X118150000Y-92325000D01*
X118144291Y-92353701D01*
X118128033Y-92378033D01*
X118103701Y-92394291D01*
X118075000Y-92400000D01*
X117925000Y-92400000D01*
X117896299Y-92394291D01*
X117871967Y-92378033D01*
X117855709Y-92353701D01*
X117850000Y-92325000D01*
X117850000Y-91000000D01*
X117855709Y-90971299D01*
X117871967Y-90946967D01*
X117896299Y-90930709D01*
X117925000Y-90925000D01*
X118075000Y-90925000D01*
X118103701Y-90930709D01*
G37*
G36*
X118603701Y-90930709D02*
G01*
X118628033Y-90946967D01*
X118644291Y-90971299D01*
X118650000Y-91000000D01*
X118650000Y-92325000D01*
X118644291Y-92353701D01*
X118628033Y-92378033D01*
X118603701Y-92394291D01*
X118575000Y-92400000D01*
X118425000Y-92400000D01*
X118396299Y-92394291D01*
X118371967Y-92378033D01*
X118355709Y-92353701D01*
X118350000Y-92325000D01*
X118350000Y-91000000D01*
X118355709Y-90971299D01*
X118371967Y-90946967D01*
X118396299Y-90930709D01*
X118425000Y-90925000D01*
X118575000Y-90925000D01*
X118603701Y-90930709D01*
G37*
G36*
X119103701Y-90930709D02*
G01*
X119128033Y-90946967D01*
X119144291Y-90971299D01*
X119150000Y-91000000D01*
X119150000Y-92325000D01*
X119144291Y-92353701D01*
X119128033Y-92378033D01*
X119103701Y-92394291D01*
X119075000Y-92400000D01*
X118925000Y-92400000D01*
X118896299Y-92394291D01*
X118871967Y-92378033D01*
X118855709Y-92353701D01*
X118850000Y-92325000D01*
X118850000Y-91000000D01*
X118855709Y-90971299D01*
X118871967Y-90946967D01*
X118896299Y-90930709D01*
X118925000Y-90925000D01*
X119075000Y-90925000D01*
X119103701Y-90930709D01*
G37*
G36*
X119603701Y-90930709D02*
G01*
X119628033Y-90946967D01*
X119644291Y-90971299D01*
X119650000Y-91000000D01*
X119650000Y-92325000D01*
X119644291Y-92353701D01*
X119628033Y-92378033D01*
X119603701Y-92394291D01*
X119575000Y-92400000D01*
X119425000Y-92400000D01*
X119396299Y-92394291D01*
X119371967Y-92378033D01*
X119355709Y-92353701D01*
X119350000Y-92325000D01*
X119350000Y-91000000D01*
X119355709Y-90971299D01*
X119371967Y-90946967D01*
X119396299Y-90930709D01*
X119425000Y-90925000D01*
X119575000Y-90925000D01*
X119603701Y-90930709D01*
G37*
G36*
X120103701Y-90930709D02*
G01*
X120128033Y-90946967D01*
X120144291Y-90971299D01*
X120150000Y-91000000D01*
X120150000Y-92325000D01*
X120144291Y-92353701D01*
X120128033Y-92378033D01*
X120103701Y-92394291D01*
X120075000Y-92400000D01*
X119925000Y-92400000D01*
X119896299Y-92394291D01*
X119871967Y-92378033D01*
X119855709Y-92353701D01*
X119850000Y-92325000D01*
X119850000Y-91000000D01*
X119855709Y-90971299D01*
X119871967Y-90946967D01*
X119896299Y-90930709D01*
X119925000Y-90925000D01*
X120075000Y-90925000D01*
X120103701Y-90930709D01*
G37*
G36*
X120603701Y-90930709D02*
G01*
X120628033Y-90946967D01*
X120644291Y-90971299D01*
X120650000Y-91000000D01*
X120650000Y-92325000D01*
X120644291Y-92353701D01*
X120628033Y-92378033D01*
X120603701Y-92394291D01*
X120575000Y-92400000D01*
X120425000Y-92400000D01*
X120396299Y-92394291D01*
X120371967Y-92378033D01*
X120355709Y-92353701D01*
X120350000Y-92325000D01*
X120350000Y-91000000D01*
X120355709Y-90971299D01*
X120371967Y-90946967D01*
X120396299Y-90930709D01*
X120425000Y-90925000D01*
X120575000Y-90925000D01*
X120603701Y-90930709D01*
G37*
G36*
X121103701Y-90930709D02*
G01*
X121128033Y-90946967D01*
X121144291Y-90971299D01*
X121150000Y-91000000D01*
X121150000Y-92325000D01*
X121144291Y-92353701D01*
X121128033Y-92378033D01*
X121103701Y-92394291D01*
X121075000Y-92400000D01*
X120925000Y-92400000D01*
X120896299Y-92394291D01*
X120871967Y-92378033D01*
X120855709Y-92353701D01*
X120850000Y-92325000D01*
X120850000Y-91000000D01*
X120855709Y-90971299D01*
X120871967Y-90946967D01*
X120896299Y-90930709D01*
X120925000Y-90925000D01*
X121075000Y-90925000D01*
X121103701Y-90930709D01*
G37*
G36*
X109466742Y-90626601D02*
G01*
X109620687Y-90690367D01*
X109759234Y-90782941D01*
X109877059Y-90900766D01*
X109969633Y-91039313D01*
X110033399Y-91193258D01*
X110065907Y-91356685D01*
X110065907Y-91523315D01*
X110033399Y-91686742D01*
X109969633Y-91840687D01*
X109877059Y-91979234D01*
X109759234Y-92097059D01*
X109620687Y-92189633D01*
X109466742Y-92253399D01*
X109303315Y-92285907D01*
X109136685Y-92285907D01*
X108973258Y-92253399D01*
X108819313Y-92189633D01*
X108680766Y-92097059D01*
X108562941Y-91979234D01*
X108470367Y-91840687D01*
X108406601Y-91686742D01*
X108374093Y-91523315D01*
X108374093Y-91356685D01*
X108406601Y-91193258D01*
X108470367Y-91039313D01*
X108562941Y-90900766D01*
X108680766Y-90782941D01*
X108819313Y-90690367D01*
X108973258Y-90626601D01*
X109136685Y-90594093D01*
X109303315Y-90594093D01*
X109466742Y-90626601D01*
G37*
G36*
X127246742Y-90626601D02*
G01*
X127400687Y-90690367D01*
X127539234Y-90782941D01*
X127657059Y-90900766D01*
X127749633Y-91039313D01*
X127813399Y-91193258D01*
X127845907Y-91356685D01*
X127845907Y-91523315D01*
X127813399Y-91686742D01*
X127749633Y-91840687D01*
X127657059Y-91979234D01*
X127539234Y-92097059D01*
X127400687Y-92189633D01*
X127246742Y-92253399D01*
X127083315Y-92285907D01*
X126916685Y-92285907D01*
X126753258Y-92253399D01*
X126599313Y-92189633D01*
X126460766Y-92097059D01*
X126342941Y-91979234D01*
X126250367Y-91840687D01*
X126186601Y-91686742D01*
X126154093Y-91523315D01*
X126154093Y-91356685D01*
X126186601Y-91193258D01*
X126250367Y-91039313D01*
X126342941Y-90900766D01*
X126460766Y-90782941D01*
X126599313Y-90690367D01*
X126753258Y-90626601D01*
X126916685Y-90594093D01*
X127083315Y-90594093D01*
X127246742Y-90626601D01*
G37*
G36*
X114778701Y-90105709D02*
G01*
X114803033Y-90121967D01*
X114819291Y-90146299D01*
X114825000Y-90175000D01*
X114825000Y-90325000D01*
X114819291Y-90353701D01*
X114803033Y-90378033D01*
X114778701Y-90394291D01*
X114750000Y-90400000D01*
X113425000Y-90400000D01*
X113396299Y-90394291D01*
X113371967Y-90378033D01*
X113355709Y-90353701D01*
X113350000Y-90325000D01*
X113350000Y-90175000D01*
X113355709Y-90146299D01*
X113371967Y-90121967D01*
X113396299Y-90105709D01*
X113425000Y-90100000D01*
X114750000Y-90100000D01*
X114778701Y-90105709D01*
G37*
G36*
X123103701Y-90105709D02*
G01*
X123128033Y-90121967D01*
X123144291Y-90146299D01*
X123150000Y-90175000D01*
X123150000Y-90325000D01*
X123144291Y-90353701D01*
X123128033Y-90378033D01*
X123103701Y-90394291D01*
X123075000Y-90400000D01*
X121750000Y-90400000D01*
X121721299Y-90394291D01*
X121696967Y-90378033D01*
X121680709Y-90353701D01*
X121675000Y-90325000D01*
X121675000Y-90175000D01*
X121680709Y-90146299D01*
X121696967Y-90121967D01*
X121721299Y-90105709D01*
X121750000Y-90100000D01*
X123075000Y-90100000D01*
X123103701Y-90105709D01*
G37*
G36*
X114778701Y-89605709D02*
G01*
X114803033Y-89621967D01*
X114819291Y-89646299D01*
X114825000Y-89675000D01*
X114825000Y-89825000D01*
X114819291Y-89853701D01*
X114803033Y-89878033D01*
X114778701Y-89894291D01*
X114750000Y-89900000D01*
X113425000Y-89900000D01*
X113396299Y-89894291D01*
X113371967Y-89878033D01*
X113355709Y-89853701D01*
X113350000Y-89825000D01*
X113350000Y-89675000D01*
X113355709Y-89646299D01*
X113371967Y-89621967D01*
X113396299Y-89605709D01*
X113425000Y-89600000D01*
X114750000Y-89600000D01*
X114778701Y-89605709D01*
G37*
G36*
X123103701Y-89605709D02*
G01*
X123128033Y-89621967D01*
X123144291Y-89646299D01*
X123150000Y-89675000D01*
X123150000Y-89825000D01*
X123144291Y-89853701D01*
X123128033Y-89878033D01*
X123103701Y-89894291D01*
X123075000Y-89900000D01*
X121750000Y-89900000D01*
X121721299Y-89894291D01*
X121696967Y-89878033D01*
X121680709Y-89853701D01*
X121675000Y-89825000D01*
X121675000Y-89675000D01*
X121680709Y-89646299D01*
X121696967Y-89621967D01*
X121721299Y-89605709D01*
X121750000Y-89600000D01*
X123075000Y-89600000D01*
X123103701Y-89605709D01*
G37*
G36*
X109466742Y-88086601D02*
G01*
X109620687Y-88150367D01*
X109759234Y-88242941D01*
X109877059Y-88360766D01*
X109969633Y-88499313D01*
X110033399Y-88653258D01*
X110065907Y-88816685D01*
X110065907Y-88983315D01*
X110033399Y-89146742D01*
X109969633Y-89300687D01*
X109877059Y-89439234D01*
X109759234Y-89557059D01*
X109620687Y-89649633D01*
X109466742Y-89713399D01*
X109303315Y-89745907D01*
X109136685Y-89745907D01*
X108973258Y-89713399D01*
X108819313Y-89649633D01*
X108680766Y-89557059D01*
X108562941Y-89439234D01*
X108470367Y-89300687D01*
X108406601Y-89146742D01*
X108374093Y-88983315D01*
X108374093Y-88816685D01*
X108406601Y-88653258D01*
X108470367Y-88499313D01*
X108562941Y-88360766D01*
X108680766Y-88242941D01*
X108819313Y-88150367D01*
X108973258Y-88086601D01*
X109136685Y-88054093D01*
X109303315Y-88054093D01*
X109466742Y-88086601D01*
G37*
G36*
X127246742Y-88086601D02*
G01*
X127400687Y-88150367D01*
X127539234Y-88242941D01*
X127657059Y-88360766D01*
X127749633Y-88499313D01*
X127813399Y-88653258D01*
X127845907Y-88816685D01*
X127845907Y-88983315D01*
X127813399Y-89146742D01*
X127749633Y-89300687D01*
X127657059Y-89439234D01*
X127539234Y-89557059D01*
X127400687Y-89649633D01*
X127246742Y-89713399D01*
X127083315Y-89745907D01*
X126916685Y-89745907D01*
X126753258Y-89713399D01*
X126599313Y-89649633D01*
X126460766Y-89557059D01*
X126342941Y-89439234D01*
X126250367Y-89300687D01*
X126186601Y-89146742D01*
X126154093Y-88983315D01*
X126154093Y-88816685D01*
X126186601Y-88653258D01*
X126250367Y-88499313D01*
X126342941Y-88360766D01*
X126460766Y-88242941D01*
X126599313Y-88150367D01*
X126753258Y-88086601D01*
X126916685Y-88054093D01*
X127083315Y-88054093D01*
X127246742Y-88086601D01*
G37*
G36*
X114778701Y-89105709D02*
G01*
X114803033Y-89121967D01*
X114819291Y-89146299D01*
X114825000Y-89175000D01*
X114825000Y-89325000D01*
X114819291Y-89353701D01*
X114803033Y-89378033D01*
X114778701Y-89394291D01*
X114750000Y-89400000D01*
X113425000Y-89400000D01*
X113396299Y-89394291D01*
X113371967Y-89378033D01*
X113355709Y-89353701D01*
X113350000Y-89325000D01*
X113350000Y-89175000D01*
X113355709Y-89146299D01*
X113371967Y-89121967D01*
X113396299Y-89105709D01*
X113425000Y-89100000D01*
X114750000Y-89100000D01*
X114778701Y-89105709D01*
G37*
G36*
X123103701Y-89105709D02*
G01*
X123128033Y-89121967D01*
X123144291Y-89146299D01*
X123150000Y-89175000D01*
X123150000Y-89325000D01*
X123144291Y-89353701D01*
X123128033Y-89378033D01*
X123103701Y-89394291D01*
X123075000Y-89400000D01*
X121750000Y-89400000D01*
X121721299Y-89394291D01*
X121696967Y-89378033D01*
X121680709Y-89353701D01*
X121675000Y-89325000D01*
X121675000Y-89175000D01*
X121680709Y-89146299D01*
X121696967Y-89121967D01*
X121721299Y-89105709D01*
X121750000Y-89100000D01*
X123075000Y-89100000D01*
X123103701Y-89105709D01*
G37*
G36*
X114778701Y-88605709D02*
G01*
X114803033Y-88621967D01*
X114819291Y-88646299D01*
X114825000Y-88675000D01*
X114825000Y-88825000D01*
X114819291Y-88853701D01*
X114803033Y-88878033D01*
X114778701Y-88894291D01*
X114750000Y-88900000D01*
X113425000Y-88900000D01*
X113396299Y-88894291D01*
X113371967Y-88878033D01*
X113355709Y-88853701D01*
X113350000Y-88825000D01*
X113350000Y-88675000D01*
X113355709Y-88646299D01*
X113371967Y-88621967D01*
X113396299Y-88605709D01*
X113425000Y-88600000D01*
X114750000Y-88600000D01*
X114778701Y-88605709D01*
G37*
G36*
X123103701Y-88605709D02*
G01*
X123128033Y-88621967D01*
X123144291Y-88646299D01*
X123150000Y-88675000D01*
X123150000Y-88825000D01*
X123144291Y-88853701D01*
X123128033Y-88878033D01*
X123103701Y-88894291D01*
X123075000Y-88900000D01*
X121750000Y-88900000D01*
X121721299Y-88894291D01*
X121696967Y-88878033D01*
X121680709Y-88853701D01*
X121675000Y-88825000D01*
X121675000Y-88675000D01*
X121680709Y-88646299D01*
X121696967Y-88621967D01*
X121721299Y-88605709D01*
X121750000Y-88600000D01*
X123075000Y-88600000D01*
X123103701Y-88605709D01*
G37*
G36*
X114778701Y-88105709D02*
G01*
X114803033Y-88121967D01*
X114819291Y-88146299D01*
X114825000Y-88175000D01*
X114825000Y-88325000D01*
X114819291Y-88353701D01*
X114803033Y-88378033D01*
X114778701Y-88394291D01*
X114750000Y-88400000D01*
X113425000Y-88400000D01*
X113396299Y-88394291D01*
X113371967Y-88378033D01*
X113355709Y-88353701D01*
X113350000Y-88325000D01*
X113350000Y-88175000D01*
X113355709Y-88146299D01*
X113371967Y-88121967D01*
X113396299Y-88105709D01*
X113425000Y-88100000D01*
X114750000Y-88100000D01*
X114778701Y-88105709D01*
G37*
G36*
X123103701Y-88105709D02*
G01*
X123128033Y-88121967D01*
X123144291Y-88146299D01*
X123150000Y-88175000D01*
X123150000Y-88325000D01*
X123144291Y-88353701D01*
X123128033Y-88378033D01*
X123103701Y-88394291D01*
X123075000Y-88400000D01*
X121750000Y-88400000D01*
X121721299Y-88394291D01*
X121696967Y-88378033D01*
X121680709Y-88353701D01*
X121675000Y-88325000D01*
X121675000Y-88175000D01*
X121680709Y-88146299D01*
X121696967Y-88121967D01*
X121721299Y-88105709D01*
X121750000Y-88100000D01*
X123075000Y-88100000D01*
X123103701Y-88105709D01*
G37*
G36*
X114778701Y-87605709D02*
G01*
X114803033Y-87621967D01*
X114819291Y-87646299D01*
X114825000Y-87675000D01*
X114825000Y-87825000D01*
X114819291Y-87853701D01*
X114803033Y-87878033D01*
X114778701Y-87894291D01*
X114750000Y-87900000D01*
X113425000Y-87900000D01*
X113396299Y-87894291D01*
X113371967Y-87878033D01*
X113355709Y-87853701D01*
X113350000Y-87825000D01*
X113350000Y-87675000D01*
X113355709Y-87646299D01*
X113371967Y-87621967D01*
X113396299Y-87605709D01*
X113425000Y-87600000D01*
X114750000Y-87600000D01*
X114778701Y-87605709D01*
G37*
G36*
X123103701Y-87605709D02*
G01*
X123128033Y-87621967D01*
X123144291Y-87646299D01*
X123150000Y-87675000D01*
X123150000Y-87825000D01*
X123144291Y-87853701D01*
X123128033Y-87878033D01*
X123103701Y-87894291D01*
X123075000Y-87900000D01*
X121750000Y-87900000D01*
X121721299Y-87894291D01*
X121696967Y-87878033D01*
X121680709Y-87853701D01*
X121675000Y-87825000D01*
X121675000Y-87675000D01*
X121680709Y-87646299D01*
X121696967Y-87621967D01*
X121721299Y-87605709D01*
X121750000Y-87600000D01*
X123075000Y-87600000D01*
X123103701Y-87605709D01*
G37*
G36*
X114778701Y-87105709D02*
G01*
X114803033Y-87121967D01*
X114819291Y-87146299D01*
X114825000Y-87175000D01*
X114825000Y-87325000D01*
X114819291Y-87353701D01*
X114803033Y-87378033D01*
X114778701Y-87394291D01*
X114750000Y-87400000D01*
X113425000Y-87400000D01*
X113396299Y-87394291D01*
X113371967Y-87378033D01*
X113355709Y-87353701D01*
X113350000Y-87325000D01*
X113350000Y-87175000D01*
X113355709Y-87146299D01*
X113371967Y-87121967D01*
X113396299Y-87105709D01*
X113425000Y-87100000D01*
X114750000Y-87100000D01*
X114778701Y-87105709D01*
G37*
G36*
X123103701Y-87105709D02*
G01*
X123128033Y-87121967D01*
X123144291Y-87146299D01*
X123150000Y-87175000D01*
X123150000Y-87325000D01*
X123144291Y-87353701D01*
X123128033Y-87378033D01*
X123103701Y-87394291D01*
X123075000Y-87400000D01*
X121750000Y-87400000D01*
X121721299Y-87394291D01*
X121696967Y-87378033D01*
X121680709Y-87353701D01*
X121675000Y-87325000D01*
X121675000Y-87175000D01*
X121680709Y-87146299D01*
X121696967Y-87121967D01*
X121721299Y-87105709D01*
X121750000Y-87100000D01*
X123075000Y-87100000D01*
X123103701Y-87105709D01*
G37*
G36*
X109466742Y-85546601D02*
G01*
X109620687Y-85610367D01*
X109759234Y-85702941D01*
X109877059Y-85820766D01*
X109969633Y-85959313D01*
X110033399Y-86113258D01*
X110065907Y-86276685D01*
X110065907Y-86443315D01*
X110033399Y-86606742D01*
X109969633Y-86760687D01*
X109877059Y-86899234D01*
X109759234Y-87017059D01*
X109620687Y-87109633D01*
X109466742Y-87173399D01*
X109303315Y-87205907D01*
X109136685Y-87205907D01*
X108973258Y-87173399D01*
X108819313Y-87109633D01*
X108680766Y-87017059D01*
X108562941Y-86899234D01*
X108470367Y-86760687D01*
X108406601Y-86606742D01*
X108374093Y-86443315D01*
X108374093Y-86276685D01*
X108406601Y-86113258D01*
X108470367Y-85959313D01*
X108562941Y-85820766D01*
X108680766Y-85702941D01*
X108819313Y-85610367D01*
X108973258Y-85546601D01*
X109136685Y-85514093D01*
X109303315Y-85514093D01*
X109466742Y-85546601D01*
G37*
G36*
X127246742Y-85546601D02*
G01*
X127400687Y-85610367D01*
X127539234Y-85702941D01*
X127657059Y-85820766D01*
X127749633Y-85959313D01*
X127813399Y-86113258D01*
X127845907Y-86276685D01*
X127845907Y-86443315D01*
X127813399Y-86606742D01*
X127749633Y-86760687D01*
X127657059Y-86899234D01*
X127539234Y-87017059D01*
X127400687Y-87109633D01*
X127246742Y-87173399D01*
X127083315Y-87205907D01*
X126916685Y-87205907D01*
X126753258Y-87173399D01*
X126599313Y-87109633D01*
X126460766Y-87017059D01*
X126342941Y-86899234D01*
X126250367Y-86760687D01*
X126186601Y-86606742D01*
X126154093Y-86443315D01*
X126154093Y-86276685D01*
X126186601Y-86113258D01*
X126250367Y-85959313D01*
X126342941Y-85820766D01*
X126460766Y-85702941D01*
X126599313Y-85610367D01*
X126753258Y-85546601D01*
X126916685Y-85514093D01*
X127083315Y-85514093D01*
X127246742Y-85546601D01*
G37*
G36*
X114778701Y-86605709D02*
G01*
X114803033Y-86621967D01*
X114819291Y-86646299D01*
X114825000Y-86675000D01*
X114825000Y-86825000D01*
X114819291Y-86853701D01*
X114803033Y-86878033D01*
X114778701Y-86894291D01*
X114750000Y-86900000D01*
X113425000Y-86900000D01*
X113396299Y-86894291D01*
X113371967Y-86878033D01*
X113355709Y-86853701D01*
X113350000Y-86825000D01*
X113350000Y-86675000D01*
X113355709Y-86646299D01*
X113371967Y-86621967D01*
X113396299Y-86605709D01*
X113425000Y-86600000D01*
X114750000Y-86600000D01*
X114778701Y-86605709D01*
G37*
G36*
X123103701Y-86605709D02*
G01*
X123128033Y-86621967D01*
X123144291Y-86646299D01*
X123150000Y-86675000D01*
X123150000Y-86825000D01*
X123144291Y-86853701D01*
X123128033Y-86878033D01*
X123103701Y-86894291D01*
X123075000Y-86900000D01*
X121750000Y-86900000D01*
X121721299Y-86894291D01*
X121696967Y-86878033D01*
X121680709Y-86853701D01*
X121675000Y-86825000D01*
X121675000Y-86675000D01*
X121680709Y-86646299D01*
X121696967Y-86621967D01*
X121721299Y-86605709D01*
X121750000Y-86600000D01*
X123075000Y-86600000D01*
X123103701Y-86605709D01*
G37*
G36*
X114778701Y-86105709D02*
G01*
X114803033Y-86121967D01*
X114819291Y-86146299D01*
X114825000Y-86175000D01*
X114825000Y-86325000D01*
X114819291Y-86353701D01*
X114803033Y-86378033D01*
X114778701Y-86394291D01*
X114750000Y-86400000D01*
X113425000Y-86400000D01*
X113396299Y-86394291D01*
X113371967Y-86378033D01*
X113355709Y-86353701D01*
X113350000Y-86325000D01*
X113350000Y-86175000D01*
X113355709Y-86146299D01*
X113371967Y-86121967D01*
X113396299Y-86105709D01*
X113425000Y-86100000D01*
X114750000Y-86100000D01*
X114778701Y-86105709D01*
G37*
G36*
X123103701Y-86105709D02*
G01*
X123128033Y-86121967D01*
X123144291Y-86146299D01*
X123150000Y-86175000D01*
X123150000Y-86325000D01*
X123144291Y-86353701D01*
X123128033Y-86378033D01*
X123103701Y-86394291D01*
X123075000Y-86400000D01*
X121750000Y-86400000D01*
X121721299Y-86394291D01*
X121696967Y-86378033D01*
X121680709Y-86353701D01*
X121675000Y-86325000D01*
X121675000Y-86175000D01*
X121680709Y-86146299D01*
X121696967Y-86121967D01*
X121721299Y-86105709D01*
X121750000Y-86100000D01*
X123075000Y-86100000D01*
X123103701Y-86105709D01*
G37*
G36*
X114778701Y-85605709D02*
G01*
X114803033Y-85621967D01*
X114819291Y-85646299D01*
X114825000Y-85675000D01*
X114825000Y-85825000D01*
X114819291Y-85853701D01*
X114803033Y-85878033D01*
X114778701Y-85894291D01*
X114750000Y-85900000D01*
X113425000Y-85900000D01*
X113396299Y-85894291D01*
X113371967Y-85878033D01*
X113355709Y-85853701D01*
X113350000Y-85825000D01*
X113350000Y-85675000D01*
X113355709Y-85646299D01*
X113371967Y-85621967D01*
X113396299Y-85605709D01*
X113425000Y-85600000D01*
X114750000Y-85600000D01*
X114778701Y-85605709D01*
G37*
G36*
X123103701Y-85605709D02*
G01*
X123128033Y-85621967D01*
X123144291Y-85646299D01*
X123150000Y-85675000D01*
X123150000Y-85825000D01*
X123144291Y-85853701D01*
X123128033Y-85878033D01*
X123103701Y-85894291D01*
X123075000Y-85900000D01*
X121750000Y-85900000D01*
X121721299Y-85894291D01*
X121696967Y-85878033D01*
X121680709Y-85853701D01*
X121675000Y-85825000D01*
X121675000Y-85675000D01*
X121680709Y-85646299D01*
X121696967Y-85621967D01*
X121721299Y-85605709D01*
X121750000Y-85600000D01*
X123075000Y-85600000D01*
X123103701Y-85605709D01*
G37*
G36*
X114778701Y-85105709D02*
G01*
X114803033Y-85121967D01*
X114819291Y-85146299D01*
X114825000Y-85175000D01*
X114825000Y-85325000D01*
X114819291Y-85353701D01*
X114803033Y-85378033D01*
X114778701Y-85394291D01*
X114750000Y-85400000D01*
X113425000Y-85400000D01*
X113396299Y-85394291D01*
X113371967Y-85378033D01*
X113355709Y-85353701D01*
X113350000Y-85325000D01*
X113350000Y-85175000D01*
X113355709Y-85146299D01*
X113371967Y-85121967D01*
X113396299Y-85105709D01*
X113425000Y-85100000D01*
X114750000Y-85100000D01*
X114778701Y-85105709D01*
G37*
G36*
X123103701Y-85105709D02*
G01*
X123128033Y-85121967D01*
X123144291Y-85146299D01*
X123150000Y-85175000D01*
X123150000Y-85325000D01*
X123144291Y-85353701D01*
X123128033Y-85378033D01*
X123103701Y-85394291D01*
X123075000Y-85400000D01*
X121750000Y-85400000D01*
X121721299Y-85394291D01*
X121696967Y-85378033D01*
X121680709Y-85353701D01*
X121675000Y-85325000D01*
X121675000Y-85175000D01*
X121680709Y-85146299D01*
X121696967Y-85121967D01*
X121721299Y-85105709D01*
X121750000Y-85100000D01*
X123075000Y-85100000D01*
X123103701Y-85105709D01*
G37*
G36*
X114778701Y-84605709D02*
G01*
X114803033Y-84621967D01*
X114819291Y-84646299D01*
X114825000Y-84675000D01*
X114825000Y-84825000D01*
X114819291Y-84853701D01*
X114803033Y-84878033D01*
X114778701Y-84894291D01*
X114750000Y-84900000D01*
X113425000Y-84900000D01*
X113396299Y-84894291D01*
X113371967Y-84878033D01*
X113355709Y-84853701D01*
X113350000Y-84825000D01*
X113350000Y-84675000D01*
X113355709Y-84646299D01*
X113371967Y-84621967D01*
X113396299Y-84605709D01*
X113425000Y-84600000D01*
X114750000Y-84600000D01*
X114778701Y-84605709D01*
G37*
G36*
X123103701Y-84605709D02*
G01*
X123128033Y-84621967D01*
X123144291Y-84646299D01*
X123150000Y-84675000D01*
X123150000Y-84825000D01*
X123144291Y-84853701D01*
X123128033Y-84878033D01*
X123103701Y-84894291D01*
X123075000Y-84900000D01*
X121750000Y-84900000D01*
X121721299Y-84894291D01*
X121696967Y-84878033D01*
X121680709Y-84853701D01*
X121675000Y-84825000D01*
X121675000Y-84675000D01*
X121680709Y-84646299D01*
X121696967Y-84621967D01*
X121721299Y-84605709D01*
X121750000Y-84600000D01*
X123075000Y-84600000D01*
X123103701Y-84605709D01*
G37*
G36*
X109466742Y-83006601D02*
G01*
X109620687Y-83070367D01*
X109759234Y-83162941D01*
X109877059Y-83280766D01*
X109969633Y-83419313D01*
X110033399Y-83573258D01*
X110065907Y-83736685D01*
X110065907Y-83903315D01*
X110033399Y-84066742D01*
X109969633Y-84220687D01*
X109877059Y-84359234D01*
X109759234Y-84477059D01*
X109620687Y-84569633D01*
X109466742Y-84633399D01*
X109303315Y-84665907D01*
X109136685Y-84665907D01*
X108973258Y-84633399D01*
X108819313Y-84569633D01*
X108680766Y-84477059D01*
X108562941Y-84359234D01*
X108470367Y-84220687D01*
X108406601Y-84066742D01*
X108374093Y-83903315D01*
X108374093Y-83736685D01*
X108406601Y-83573258D01*
X108470367Y-83419313D01*
X108562941Y-83280766D01*
X108680766Y-83162941D01*
X108819313Y-83070367D01*
X108973258Y-83006601D01*
X109136685Y-82974093D01*
X109303315Y-82974093D01*
X109466742Y-83006601D01*
G37*
G36*
X127246742Y-83006601D02*
G01*
X127400687Y-83070367D01*
X127539234Y-83162941D01*
X127657059Y-83280766D01*
X127749633Y-83419313D01*
X127813399Y-83573258D01*
X127845907Y-83736685D01*
X127845907Y-83903315D01*
X127813399Y-84066742D01*
X127749633Y-84220687D01*
X127657059Y-84359234D01*
X127539234Y-84477059D01*
X127400687Y-84569633D01*
X127246742Y-84633399D01*
X127083315Y-84665907D01*
X126916685Y-84665907D01*
X126753258Y-84633399D01*
X126599313Y-84569633D01*
X126460766Y-84477059D01*
X126342941Y-84359234D01*
X126250367Y-84220687D01*
X126186601Y-84066742D01*
X126154093Y-83903315D01*
X126154093Y-83736685D01*
X126186601Y-83573258D01*
X126250367Y-83419313D01*
X126342941Y-83280766D01*
X126460766Y-83162941D01*
X126599313Y-83070367D01*
X126753258Y-83006601D01*
X126916685Y-82974093D01*
X127083315Y-82974093D01*
X127246742Y-83006601D01*
G37*
G36*
X115603701Y-82605709D02*
G01*
X115628033Y-82621967D01*
X115644291Y-82646299D01*
X115650000Y-82675000D01*
X115650000Y-84000000D01*
X115644291Y-84028701D01*
X115628033Y-84053033D01*
X115603701Y-84069291D01*
X115575000Y-84075000D01*
X115425000Y-84075000D01*
X115396299Y-84069291D01*
X115371967Y-84053033D01*
X115355709Y-84028701D01*
X115350000Y-84000000D01*
X115350000Y-82675000D01*
X115355709Y-82646299D01*
X115371967Y-82621967D01*
X115396299Y-82605709D01*
X115425000Y-82600000D01*
X115575000Y-82600000D01*
X115603701Y-82605709D01*
G37*
G36*
X116103701Y-82605709D02*
G01*
X116128033Y-82621967D01*
X116144291Y-82646299D01*
X116150000Y-82675000D01*
X116150000Y-84000000D01*
X116144291Y-84028701D01*
X116128033Y-84053033D01*
X116103701Y-84069291D01*
X116075000Y-84075000D01*
X115925000Y-84075000D01*
X115896299Y-84069291D01*
X115871967Y-84053033D01*
X115855709Y-84028701D01*
X115850000Y-84000000D01*
X115850000Y-82675000D01*
X115855709Y-82646299D01*
X115871967Y-82621967D01*
X115896299Y-82605709D01*
X115925000Y-82600000D01*
X116075000Y-82600000D01*
X116103701Y-82605709D01*
G37*
G36*
X116603701Y-82605709D02*
G01*
X116628033Y-82621967D01*
X116644291Y-82646299D01*
X116650000Y-82675000D01*
X116650000Y-84000000D01*
X116644291Y-84028701D01*
X116628033Y-84053033D01*
X116603701Y-84069291D01*
X116575000Y-84075000D01*
X116425000Y-84075000D01*
X116396299Y-84069291D01*
X116371967Y-84053033D01*
X116355709Y-84028701D01*
X116350000Y-84000000D01*
X116350000Y-82675000D01*
X116355709Y-82646299D01*
X116371967Y-82621967D01*
X116396299Y-82605709D01*
X116425000Y-82600000D01*
X116575000Y-82600000D01*
X116603701Y-82605709D01*
G37*
G36*
X117103701Y-82605709D02*
G01*
X117128033Y-82621967D01*
X117144291Y-82646299D01*
X117150000Y-82675000D01*
X117150000Y-84000000D01*
X117144291Y-84028701D01*
X117128033Y-84053033D01*
X117103701Y-84069291D01*
X117075000Y-84075000D01*
X116925000Y-84075000D01*
X116896299Y-84069291D01*
X116871967Y-84053033D01*
X116855709Y-84028701D01*
X116850000Y-84000000D01*
X116850000Y-82675000D01*
X116855709Y-82646299D01*
X116871967Y-82621967D01*
X116896299Y-82605709D01*
X116925000Y-82600000D01*
X117075000Y-82600000D01*
X117103701Y-82605709D01*
G37*
G36*
X117603701Y-82605709D02*
G01*
X117628033Y-82621967D01*
X117644291Y-82646299D01*
X117650000Y-82675000D01*
X117650000Y-84000000D01*
X117644291Y-84028701D01*
X117628033Y-84053033D01*
X117603701Y-84069291D01*
X117575000Y-84075000D01*
X117425000Y-84075000D01*
X117396299Y-84069291D01*
X117371967Y-84053033D01*
X117355709Y-84028701D01*
X117350000Y-84000000D01*
X117350000Y-82675000D01*
X117355709Y-82646299D01*
X117371967Y-82621967D01*
X117396299Y-82605709D01*
X117425000Y-82600000D01*
X117575000Y-82600000D01*
X117603701Y-82605709D01*
G37*
G36*
X118103701Y-82605709D02*
G01*
X118128033Y-82621967D01*
X118144291Y-82646299D01*
X118150000Y-82675000D01*
X118150000Y-84000000D01*
X118144291Y-84028701D01*
X118128033Y-84053033D01*
X118103701Y-84069291D01*
X118075000Y-84075000D01*
X117925000Y-84075000D01*
X117896299Y-84069291D01*
X117871967Y-84053033D01*
X117855709Y-84028701D01*
X117850000Y-84000000D01*
X117850000Y-82675000D01*
X117855709Y-82646299D01*
X117871967Y-82621967D01*
X117896299Y-82605709D01*
X117925000Y-82600000D01*
X118075000Y-82600000D01*
X118103701Y-82605709D01*
G37*
G36*
X118603701Y-82605709D02*
G01*
X118628033Y-82621967D01*
X118644291Y-82646299D01*
X118650000Y-82675000D01*
X118650000Y-84000000D01*
X118644291Y-84028701D01*
X118628033Y-84053033D01*
X118603701Y-84069291D01*
X118575000Y-84075000D01*
X118425000Y-84075000D01*
X118396299Y-84069291D01*
X118371967Y-84053033D01*
X118355709Y-84028701D01*
X118350000Y-84000000D01*
X118350000Y-82675000D01*
X118355709Y-82646299D01*
X118371967Y-82621967D01*
X118396299Y-82605709D01*
X118425000Y-82600000D01*
X118575000Y-82600000D01*
X118603701Y-82605709D01*
G37*
G36*
X119103701Y-82605709D02*
G01*
X119128033Y-82621967D01*
X119144291Y-82646299D01*
X119150000Y-82675000D01*
X119150000Y-84000000D01*
X119144291Y-84028701D01*
X119128033Y-84053033D01*
X119103701Y-84069291D01*
X119075000Y-84075000D01*
X118925000Y-84075000D01*
X118896299Y-84069291D01*
X118871967Y-84053033D01*
X118855709Y-84028701D01*
X118850000Y-84000000D01*
X118850000Y-82675000D01*
X118855709Y-82646299D01*
X118871967Y-82621967D01*
X118896299Y-82605709D01*
X118925000Y-82600000D01*
X119075000Y-82600000D01*
X119103701Y-82605709D01*
G37*
G36*
X119603701Y-82605709D02*
G01*
X119628033Y-82621967D01*
X119644291Y-82646299D01*
X119650000Y-82675000D01*
X119650000Y-84000000D01*
X119644291Y-84028701D01*
X119628033Y-84053033D01*
X119603701Y-84069291D01*
X119575000Y-84075000D01*
X119425000Y-84075000D01*
X119396299Y-84069291D01*
X119371967Y-84053033D01*
X119355709Y-84028701D01*
X119350000Y-84000000D01*
X119350000Y-82675000D01*
X119355709Y-82646299D01*
X119371967Y-82621967D01*
X119396299Y-82605709D01*
X119425000Y-82600000D01*
X119575000Y-82600000D01*
X119603701Y-82605709D01*
G37*
G36*
X120103701Y-82605709D02*
G01*
X120128033Y-82621967D01*
X120144291Y-82646299D01*
X120150000Y-82675000D01*
X120150000Y-84000000D01*
X120144291Y-84028701D01*
X120128033Y-84053033D01*
X120103701Y-84069291D01*
X120075000Y-84075000D01*
X119925000Y-84075000D01*
X119896299Y-84069291D01*
X119871967Y-84053033D01*
X119855709Y-84028701D01*
X119850000Y-84000000D01*
X119850000Y-82675000D01*
X119855709Y-82646299D01*
X119871967Y-82621967D01*
X119896299Y-82605709D01*
X119925000Y-82600000D01*
X120075000Y-82600000D01*
X120103701Y-82605709D01*
G37*
G36*
X120603701Y-82605709D02*
G01*
X120628033Y-82621967D01*
X120644291Y-82646299D01*
X120650000Y-82675000D01*
X120650000Y-84000000D01*
X120644291Y-84028701D01*
X120628033Y-84053033D01*
X120603701Y-84069291D01*
X120575000Y-84075000D01*
X120425000Y-84075000D01*
X120396299Y-84069291D01*
X120371967Y-84053033D01*
X120355709Y-84028701D01*
X120350000Y-84000000D01*
X120350000Y-82675000D01*
X120355709Y-82646299D01*
X120371967Y-82621967D01*
X120396299Y-82605709D01*
X120425000Y-82600000D01*
X120575000Y-82600000D01*
X120603701Y-82605709D01*
G37*
G36*
X121103701Y-82605709D02*
G01*
X121128033Y-82621967D01*
X121144291Y-82646299D01*
X121150000Y-82675000D01*
X121150000Y-84000000D01*
X121144291Y-84028701D01*
X121128033Y-84053033D01*
X121103701Y-84069291D01*
X121075000Y-84075000D01*
X120925000Y-84075000D01*
X120896299Y-84069291D01*
X120871967Y-84053033D01*
X120855709Y-84028701D01*
X120850000Y-84000000D01*
X120850000Y-82675000D01*
X120855709Y-82646299D01*
X120871967Y-82621967D01*
X120896299Y-82605709D01*
X120925000Y-82600000D01*
X121075000Y-82600000D01*
X121103701Y-82605709D01*
G37*
G36*
X109466742Y-80466601D02*
G01*
X109620687Y-80530367D01*
X109759234Y-80622941D01*
X109877059Y-80740766D01*
X109969633Y-80879313D01*
X110033399Y-81033258D01*
X110065907Y-81196685D01*
X110065907Y-81363315D01*
X110033399Y-81526742D01*
X109969633Y-81680687D01*
X109877059Y-81819234D01*
X109759234Y-81937059D01*
X109620687Y-82029633D01*
X109466742Y-82093399D01*
X109303315Y-82125907D01*
X109136685Y-82125907D01*
X108973258Y-82093399D01*
X108819313Y-82029633D01*
X108680766Y-81937059D01*
X108562941Y-81819234D01*
X108470367Y-81680687D01*
X108406601Y-81526742D01*
X108374093Y-81363315D01*
X108374093Y-81196685D01*
X108406601Y-81033258D01*
X108470367Y-80879313D01*
X108562941Y-80740766D01*
X108680766Y-80622941D01*
X108819313Y-80530367D01*
X108973258Y-80466601D01*
X109136685Y-80434093D01*
X109303315Y-80434093D01*
X109466742Y-80466601D01*
G37*
G36*
X127246742Y-80466601D02*
G01*
X127400687Y-80530367D01*
X127539234Y-80622941D01*
X127657059Y-80740766D01*
X127749633Y-80879313D01*
X127813399Y-81033258D01*
X127845907Y-81196685D01*
X127845907Y-81363315D01*
X127813399Y-81526742D01*
X127749633Y-81680687D01*
X127657059Y-81819234D01*
X127539234Y-81937059D01*
X127400687Y-82029633D01*
X127246742Y-82093399D01*
X127083315Y-82125907D01*
X126916685Y-82125907D01*
X126753258Y-82093399D01*
X126599313Y-82029633D01*
X126460766Y-81937059D01*
X126342941Y-81819234D01*
X126250367Y-81680687D01*
X126186601Y-81526742D01*
X126154093Y-81363315D01*
X126154093Y-81196685D01*
X126186601Y-81033258D01*
X126250367Y-80879313D01*
X126342941Y-80740766D01*
X126460766Y-80622941D01*
X126599313Y-80530367D01*
X126753258Y-80466601D01*
X126916685Y-80434093D01*
X127083315Y-80434093D01*
X127246742Y-80466601D01*
G37*
G36*
X113454850Y-78400964D02*
G01*
X113505040Y-78406787D01*
X113522189Y-78414359D01*
X113545671Y-78419030D01*
X113570810Y-78435827D01*
X113590696Y-78444608D01*
X113604277Y-78458189D01*
X113626777Y-78473223D01*
X113641810Y-78495722D01*
X113655391Y-78509303D01*
X113664170Y-78529186D01*
X113680970Y-78554329D01*
X113685641Y-78577812D01*
X113693212Y-78594959D01*
X113699033Y-78645139D01*
X113700000Y-78650000D01*
X113700000Y-79350000D01*
X113699032Y-79354863D01*
X113693212Y-79405040D01*
X113685641Y-79422185D01*
X113680970Y-79445671D01*
X113664169Y-79470815D01*
X113655391Y-79490696D01*
X113641812Y-79504274D01*
X113626777Y-79526777D01*
X113604274Y-79541812D01*
X113590696Y-79555391D01*
X113570815Y-79564169D01*
X113545671Y-79580970D01*
X113522185Y-79585641D01*
X113505040Y-79593212D01*
X113454861Y-79599032D01*
X113450000Y-79600000D01*
X112550000Y-79600000D01*
X112545138Y-79599032D01*
X112494959Y-79593212D01*
X112477812Y-79585641D01*
X112454329Y-79580970D01*
X112429186Y-79564170D01*
X112409303Y-79555391D01*
X112395722Y-79541810D01*
X112373223Y-79526777D01*
X112358189Y-79504277D01*
X112344608Y-79490696D01*
X112335827Y-79470810D01*
X112319030Y-79445671D01*
X112314359Y-79422189D01*
X112306787Y-79405040D01*
X112300964Y-79354849D01*
X112300000Y-79350000D01*
X112300000Y-78650000D01*
X112300964Y-78645150D01*
X112306787Y-78594959D01*
X112314359Y-78577808D01*
X112319030Y-78554329D01*
X112335826Y-78529191D01*
X112344608Y-78509303D01*
X112358191Y-78495719D01*
X112373223Y-78473223D01*
X112395719Y-78458191D01*
X112409303Y-78444608D01*
X112429191Y-78435826D01*
X112454329Y-78419030D01*
X112477808Y-78414359D01*
X112494959Y-78406787D01*
X112545151Y-78400964D01*
X112550000Y-78400000D01*
X113450000Y-78400000D01*
X113454850Y-78400964D01*
G37*
G36*
X109466742Y-77926601D02*
G01*
X109620687Y-77990367D01*
X109759234Y-78082941D01*
X109877059Y-78200766D01*
X109969633Y-78339313D01*
X110033399Y-78493258D01*
X110065907Y-78656685D01*
X110065907Y-78823315D01*
X110033399Y-78986742D01*
X109969633Y-79140687D01*
X109877059Y-79279234D01*
X109759234Y-79397059D01*
X109620687Y-79489633D01*
X109466742Y-79553399D01*
X109303315Y-79585907D01*
X109136685Y-79585907D01*
X108973258Y-79553399D01*
X108819313Y-79489633D01*
X108680766Y-79397059D01*
X108562941Y-79279234D01*
X108470367Y-79140687D01*
X108406601Y-78986742D01*
X108374093Y-78823315D01*
X108374093Y-78656685D01*
X108406601Y-78493258D01*
X108470367Y-78339313D01*
X108562941Y-78200766D01*
X108680766Y-78082941D01*
X108819313Y-77990367D01*
X108973258Y-77926601D01*
X109136685Y-77894093D01*
X109303315Y-77894093D01*
X109466742Y-77926601D01*
G37*
G36*
X127246742Y-77926601D02*
G01*
X127400687Y-77990367D01*
X127539234Y-78082941D01*
X127657059Y-78200766D01*
X127749633Y-78339313D01*
X127813399Y-78493258D01*
X127845907Y-78656685D01*
X127845907Y-78823315D01*
X127813399Y-78986742D01*
X127749633Y-79140687D01*
X127657059Y-79279234D01*
X127539234Y-79397059D01*
X127400687Y-79489633D01*
X127246742Y-79553399D01*
X127083315Y-79585907D01*
X126916685Y-79585907D01*
X126753258Y-79553399D01*
X126599313Y-79489633D01*
X126460766Y-79397059D01*
X126342941Y-79279234D01*
X126250367Y-79140687D01*
X126186601Y-78986742D01*
X126154093Y-78823315D01*
X126154093Y-78656685D01*
X126186601Y-78493258D01*
X126250367Y-78339313D01*
X126342941Y-78200766D01*
X126460766Y-78082941D01*
X126599313Y-77990367D01*
X126753258Y-77926601D01*
X126916685Y-77894093D01*
X127083315Y-77894093D01*
X127246742Y-77926601D01*
G37*
G36*
X115767350Y-77055964D02*
G01*
X115817540Y-77061787D01*
X115834689Y-77069359D01*
X115858171Y-77074030D01*
X115883310Y-77090827D01*
X115903196Y-77099608D01*
X115916777Y-77113189D01*
X115939277Y-77128223D01*
X115954310Y-77150722D01*
X115967891Y-77164303D01*
X115976670Y-77184186D01*
X115993470Y-77209329D01*
X115998141Y-77232812D01*
X116005712Y-77249959D01*
X116011533Y-77300139D01*
X116012500Y-77305000D01*
X116012500Y-78255000D01*
X116011532Y-78259863D01*
X116005712Y-78310040D01*
X115998141Y-78327185D01*
X115993470Y-78350671D01*
X115976669Y-78375815D01*
X115967891Y-78395696D01*
X115954312Y-78409274D01*
X115939277Y-78431777D01*
X115916774Y-78446812D01*
X115903196Y-78460391D01*
X115883315Y-78469169D01*
X115858171Y-78485970D01*
X115834685Y-78490641D01*
X115817540Y-78498212D01*
X115767361Y-78504032D01*
X115762500Y-78505000D01*
X115087500Y-78505000D01*
X115082638Y-78504032D01*
X115032459Y-78498212D01*
X115015312Y-78490641D01*
X114991829Y-78485970D01*
X114966686Y-78469170D01*
X114946803Y-78460391D01*
X114933222Y-78446810D01*
X114910723Y-78431777D01*
X114895689Y-78409277D01*
X114882108Y-78395696D01*
X114873327Y-78375810D01*
X114856530Y-78350671D01*
X114851859Y-78327189D01*
X114844287Y-78310040D01*
X114838464Y-78259849D01*
X114837500Y-78255000D01*
X114837500Y-77305000D01*
X114838464Y-77300150D01*
X114844287Y-77249959D01*
X114851859Y-77232808D01*
X114856530Y-77209329D01*
X114873326Y-77184191D01*
X114882108Y-77164303D01*
X114895691Y-77150719D01*
X114910723Y-77128223D01*
X114933219Y-77113191D01*
X114946803Y-77099608D01*
X114966691Y-77090826D01*
X114991829Y-77074030D01*
X115015308Y-77069359D01*
X115032459Y-77061787D01*
X115082651Y-77055964D01*
X115087500Y-77055000D01*
X115762500Y-77055000D01*
X115767350Y-77055964D01*
G37*
G36*
X117842350Y-77055964D02*
G01*
X117892540Y-77061787D01*
X117909689Y-77069359D01*
X117933171Y-77074030D01*
X117958310Y-77090827D01*
X117978196Y-77099608D01*
X117991777Y-77113189D01*
X118014277Y-77128223D01*
X118029310Y-77150722D01*
X118042891Y-77164303D01*
X118051670Y-77184186D01*
X118068470Y-77209329D01*
X118073141Y-77232812D01*
X118080712Y-77249959D01*
X118086533Y-77300139D01*
X118087500Y-77305000D01*
X118087500Y-78255000D01*
X118086532Y-78259863D01*
X118080712Y-78310040D01*
X118073141Y-78327185D01*
X118068470Y-78350671D01*
X118051669Y-78375815D01*
X118042891Y-78395696D01*
X118029312Y-78409274D01*
X118014277Y-78431777D01*
X117991774Y-78446812D01*
X117978196Y-78460391D01*
X117958315Y-78469169D01*
X117933171Y-78485970D01*
X117909685Y-78490641D01*
X117892540Y-78498212D01*
X117842361Y-78504032D01*
X117837500Y-78505000D01*
X117162500Y-78505000D01*
X117157638Y-78504032D01*
X117107459Y-78498212D01*
X117090312Y-78490641D01*
X117066829Y-78485970D01*
X117041686Y-78469170D01*
X117021803Y-78460391D01*
X117008222Y-78446810D01*
X116985723Y-78431777D01*
X116970689Y-78409277D01*
X116957108Y-78395696D01*
X116948327Y-78375810D01*
X116931530Y-78350671D01*
X116926859Y-78327189D01*
X116919287Y-78310040D01*
X116913464Y-78259849D01*
X116912500Y-78255000D01*
X116912500Y-77305000D01*
X116913464Y-77300150D01*
X116919287Y-77249959D01*
X116926859Y-77232808D01*
X116931530Y-77209329D01*
X116948326Y-77184191D01*
X116957108Y-77164303D01*
X116970691Y-77150719D01*
X116985723Y-77128223D01*
X117008219Y-77113191D01*
X117021803Y-77099608D01*
X117041691Y-77090826D01*
X117066829Y-77074030D01*
X117090308Y-77069359D01*
X117107459Y-77061787D01*
X117157651Y-77055964D01*
X117162500Y-77055000D01*
X117837500Y-77055000D01*
X117842350Y-77055964D01*
G37*
G36*
X120222350Y-77055964D02*
G01*
X120272540Y-77061787D01*
X120289689Y-77069359D01*
X120313171Y-77074030D01*
X120338310Y-77090827D01*
X120358196Y-77099608D01*
X120371777Y-77113189D01*
X120394277Y-77128223D01*
X120409310Y-77150722D01*
X120422891Y-77164303D01*
X120431670Y-77184186D01*
X120448470Y-77209329D01*
X120453141Y-77232812D01*
X120460712Y-77249959D01*
X120466533Y-77300139D01*
X120467500Y-77305000D01*
X120467500Y-78255000D01*
X120466532Y-78259863D01*
X120460712Y-78310040D01*
X120453141Y-78327185D01*
X120448470Y-78350671D01*
X120431669Y-78375815D01*
X120422891Y-78395696D01*
X120409312Y-78409274D01*
X120394277Y-78431777D01*
X120371774Y-78446812D01*
X120358196Y-78460391D01*
X120338315Y-78469169D01*
X120313171Y-78485970D01*
X120289685Y-78490641D01*
X120272540Y-78498212D01*
X120222361Y-78504032D01*
X120217500Y-78505000D01*
X119542500Y-78505000D01*
X119537638Y-78504032D01*
X119487459Y-78498212D01*
X119470312Y-78490641D01*
X119446829Y-78485970D01*
X119421686Y-78469170D01*
X119401803Y-78460391D01*
X119388222Y-78446810D01*
X119365723Y-78431777D01*
X119350689Y-78409277D01*
X119337108Y-78395696D01*
X119328327Y-78375810D01*
X119311530Y-78350671D01*
X119306859Y-78327189D01*
X119299287Y-78310040D01*
X119293464Y-78259849D01*
X119292500Y-78255000D01*
X119292500Y-77305000D01*
X119293464Y-77300150D01*
X119299287Y-77249959D01*
X119306859Y-77232808D01*
X119311530Y-77209329D01*
X119328326Y-77184191D01*
X119337108Y-77164303D01*
X119350691Y-77150719D01*
X119365723Y-77128223D01*
X119388219Y-77113191D01*
X119401803Y-77099608D01*
X119421691Y-77090826D01*
X119446829Y-77074030D01*
X119470308Y-77069359D01*
X119487459Y-77061787D01*
X119537651Y-77055964D01*
X119542500Y-77055000D01*
X120217500Y-77055000D01*
X120222350Y-77055964D01*
G37*
G36*
X122297350Y-77055964D02*
G01*
X122347540Y-77061787D01*
X122364689Y-77069359D01*
X122388171Y-77074030D01*
X122413310Y-77090827D01*
X122433196Y-77099608D01*
X122446777Y-77113189D01*
X122469277Y-77128223D01*
X122484310Y-77150722D01*
X122497891Y-77164303D01*
X122506670Y-77184186D01*
X122523470Y-77209329D01*
X122528141Y-77232812D01*
X122535712Y-77249959D01*
X122541533Y-77300139D01*
X122542500Y-77305000D01*
X122542500Y-78255000D01*
X122541532Y-78259863D01*
X122535712Y-78310040D01*
X122528141Y-78327185D01*
X122523470Y-78350671D01*
X122506669Y-78375815D01*
X122497891Y-78395696D01*
X122484312Y-78409274D01*
X122469277Y-78431777D01*
X122446774Y-78446812D01*
X122433196Y-78460391D01*
X122413315Y-78469169D01*
X122388171Y-78485970D01*
X122364685Y-78490641D01*
X122347540Y-78498212D01*
X122297361Y-78504032D01*
X122292500Y-78505000D01*
X121617500Y-78505000D01*
X121612638Y-78504032D01*
X121562459Y-78498212D01*
X121545312Y-78490641D01*
X121521829Y-78485970D01*
X121496686Y-78469170D01*
X121476803Y-78460391D01*
X121463222Y-78446810D01*
X121440723Y-78431777D01*
X121425689Y-78409277D01*
X121412108Y-78395696D01*
X121403327Y-78375810D01*
X121386530Y-78350671D01*
X121381859Y-78327189D01*
X121374287Y-78310040D01*
X121368464Y-78259849D01*
X121367500Y-78255000D01*
X121367500Y-77305000D01*
X121368464Y-77300150D01*
X121374287Y-77249959D01*
X121381859Y-77232808D01*
X121386530Y-77209329D01*
X121403326Y-77184191D01*
X121412108Y-77164303D01*
X121425691Y-77150719D01*
X121440723Y-77128223D01*
X121463219Y-77113191D01*
X121476803Y-77099608D01*
X121496691Y-77090826D01*
X121521829Y-77074030D01*
X121545308Y-77069359D01*
X121562459Y-77061787D01*
X121612651Y-77055964D01*
X121617500Y-77055000D01*
X122292500Y-77055000D01*
X122297350Y-77055964D01*
G37*
G36*
X113454850Y-76400964D02*
G01*
X113505040Y-76406787D01*
X113522189Y-76414359D01*
X113545671Y-76419030D01*
X113570810Y-76435827D01*
X113590696Y-76444608D01*
X113604277Y-76458189D01*
X113626777Y-76473223D01*
X113641810Y-76495722D01*
X113655391Y-76509303D01*
X113664170Y-76529186D01*
X113680970Y-76554329D01*
X113685641Y-76577812D01*
X113693212Y-76594959D01*
X113699033Y-76645139D01*
X113700000Y-76650000D01*
X113700000Y-77350000D01*
X113699032Y-77354863D01*
X113693212Y-77405040D01*
X113685641Y-77422185D01*
X113680970Y-77445671D01*
X113664169Y-77470815D01*
X113655391Y-77490696D01*
X113641812Y-77504274D01*
X113626777Y-77526777D01*
X113604274Y-77541812D01*
X113590696Y-77555391D01*
X113570815Y-77564169D01*
X113545671Y-77580970D01*
X113522185Y-77585641D01*
X113505040Y-77593212D01*
X113454861Y-77599032D01*
X113450000Y-77600000D01*
X112550000Y-77600000D01*
X112545138Y-77599032D01*
X112494959Y-77593212D01*
X112477812Y-77585641D01*
X112454329Y-77580970D01*
X112429186Y-77564170D01*
X112409303Y-77555391D01*
X112395722Y-77541810D01*
X112373223Y-77526777D01*
X112358189Y-77504277D01*
X112344608Y-77490696D01*
X112335827Y-77470810D01*
X112319030Y-77445671D01*
X112314359Y-77422189D01*
X112306787Y-77405040D01*
X112300964Y-77354849D01*
X112300000Y-77350000D01*
X112300000Y-76650000D01*
X112300964Y-76645150D01*
X112306787Y-76594959D01*
X112314359Y-76577808D01*
X112319030Y-76554329D01*
X112335826Y-76529191D01*
X112344608Y-76509303D01*
X112358191Y-76495719D01*
X112373223Y-76473223D01*
X112395719Y-76458191D01*
X112409303Y-76444608D01*
X112429191Y-76435826D01*
X112454329Y-76419030D01*
X112477808Y-76414359D01*
X112494959Y-76406787D01*
X112545151Y-76400964D01*
X112550000Y-76400000D01*
X113450000Y-76400000D01*
X113454850Y-76400964D01*
G37*
G36*
X109466742Y-75386601D02*
G01*
X109620687Y-75450367D01*
X109759234Y-75542941D01*
X109877059Y-75660766D01*
X109969633Y-75799313D01*
X110033399Y-75953258D01*
X110065907Y-76116685D01*
X110065907Y-76283315D01*
X110033399Y-76446742D01*
X109969633Y-76600687D01*
X109877059Y-76739234D01*
X109759234Y-76857059D01*
X109620687Y-76949633D01*
X109466742Y-77013399D01*
X109303315Y-77045907D01*
X109136685Y-77045907D01*
X108973258Y-77013399D01*
X108819313Y-76949633D01*
X108680766Y-76857059D01*
X108562941Y-76739234D01*
X108470367Y-76600687D01*
X108406601Y-76446742D01*
X108374093Y-76283315D01*
X108374093Y-76116685D01*
X108406601Y-75953258D01*
X108470367Y-75799313D01*
X108562941Y-75660766D01*
X108680766Y-75542941D01*
X108819313Y-75450367D01*
X108973258Y-75386601D01*
X109136685Y-75354093D01*
X109303315Y-75354093D01*
X109466742Y-75386601D01*
G37*
G36*
X127246742Y-75386601D02*
G01*
X127400687Y-75450367D01*
X127539234Y-75542941D01*
X127657059Y-75660766D01*
X127749633Y-75799313D01*
X127813399Y-75953258D01*
X127845907Y-76116685D01*
X127845907Y-76283315D01*
X127813399Y-76446742D01*
X127749633Y-76600687D01*
X127657059Y-76739234D01*
X127539234Y-76857059D01*
X127400687Y-76949633D01*
X127246742Y-77013399D01*
X127083315Y-77045907D01*
X126916685Y-77045907D01*
X126753258Y-77013399D01*
X126599313Y-76949633D01*
X126460766Y-76857059D01*
X126342941Y-76739234D01*
X126250367Y-76600687D01*
X126186601Y-76446742D01*
X126154093Y-76283315D01*
X126154093Y-76116685D01*
X126186601Y-75953258D01*
X126250367Y-75799313D01*
X126342941Y-75660766D01*
X126460766Y-75542941D01*
X126599313Y-75450367D01*
X126753258Y-75386601D01*
X126916685Y-75354093D01*
X127083315Y-75354093D01*
X127246742Y-75386601D01*
G37*
G36*
X120354850Y-73300964D02*
G01*
X120405040Y-73306787D01*
X120422189Y-73314359D01*
X120445671Y-73319030D01*
X120470810Y-73335827D01*
X120490696Y-73344608D01*
X120504277Y-73358189D01*
X120526777Y-73373223D01*
X120541810Y-73395722D01*
X120555391Y-73409303D01*
X120564170Y-73429186D01*
X120580970Y-73454329D01*
X120585641Y-73477812D01*
X120593212Y-73494959D01*
X120599033Y-73545139D01*
X120600000Y-73550000D01*
X120600000Y-74450000D01*
X120599032Y-74454863D01*
X120593212Y-74505040D01*
X120585641Y-74522185D01*
X120580970Y-74545671D01*
X120564169Y-74570815D01*
X120555391Y-74590696D01*
X120541812Y-74604274D01*
X120526777Y-74626777D01*
X120504274Y-74641812D01*
X120490696Y-74655391D01*
X120470815Y-74664169D01*
X120445671Y-74680970D01*
X120422185Y-74685641D01*
X120405040Y-74693212D01*
X120354861Y-74699032D01*
X120350000Y-74700000D01*
X119650000Y-74700000D01*
X119645138Y-74699032D01*
X119594959Y-74693212D01*
X119577812Y-74685641D01*
X119554329Y-74680970D01*
X119529186Y-74664170D01*
X119509303Y-74655391D01*
X119495722Y-74641810D01*
X119473223Y-74626777D01*
X119458189Y-74604277D01*
X119444608Y-74590696D01*
X119435827Y-74570810D01*
X119419030Y-74545671D01*
X119414359Y-74522189D01*
X119406787Y-74505040D01*
X119400964Y-74454849D01*
X119400000Y-74450000D01*
X119400000Y-73550000D01*
X119400964Y-73545150D01*
X119406787Y-73494959D01*
X119414359Y-73477808D01*
X119419030Y-73454329D01*
X119435826Y-73429191D01*
X119444608Y-73409303D01*
X119458191Y-73395719D01*
X119473223Y-73373223D01*
X119495719Y-73358191D01*
X119509303Y-73344608D01*
X119529191Y-73335826D01*
X119554329Y-73319030D01*
X119577808Y-73314359D01*
X119594959Y-73306787D01*
X119645151Y-73300964D01*
X119650000Y-73300000D01*
X120350000Y-73300000D01*
X120354850Y-73300964D01*
G37*
G36*
X122354850Y-73300964D02*
G01*
X122405040Y-73306787D01*
X122422189Y-73314359D01*
X122445671Y-73319030D01*
X122470810Y-73335827D01*
X122490696Y-73344608D01*
X122504277Y-73358189D01*
X122526777Y-73373223D01*
X122541810Y-73395722D01*
X122555391Y-73409303D01*
X122564170Y-73429186D01*
X122580970Y-73454329D01*
X122585641Y-73477812D01*
X122593212Y-73494959D01*
X122599033Y-73545139D01*
X122600000Y-73550000D01*
X122600000Y-74450000D01*
X122599032Y-74454863D01*
X122593212Y-74505040D01*
X122585641Y-74522185D01*
X122580970Y-74545671D01*
X122564169Y-74570815D01*
X122555391Y-74590696D01*
X122541812Y-74604274D01*
X122526777Y-74626777D01*
X122504274Y-74641812D01*
X122490696Y-74655391D01*
X122470815Y-74664169D01*
X122445671Y-74680970D01*
X122422185Y-74685641D01*
X122405040Y-74693212D01*
X122354861Y-74699032D01*
X122350000Y-74700000D01*
X121650000Y-74700000D01*
X121645138Y-74699032D01*
X121594959Y-74693212D01*
X121577812Y-74685641D01*
X121554329Y-74680970D01*
X121529186Y-74664170D01*
X121509303Y-74655391D01*
X121495722Y-74641810D01*
X121473223Y-74626777D01*
X121458189Y-74604277D01*
X121444608Y-74590696D01*
X121435827Y-74570810D01*
X121419030Y-74545671D01*
X121414359Y-74522189D01*
X121406787Y-74505040D01*
X121400964Y-74454849D01*
X121400000Y-74450000D01*
X121400000Y-73550000D01*
X121400964Y-73545150D01*
X121406787Y-73494959D01*
X121414359Y-73477808D01*
X121419030Y-73454329D01*
X121435826Y-73429191D01*
X121444608Y-73409303D01*
X121458191Y-73395719D01*
X121473223Y-73373223D01*
X121495719Y-73358191D01*
X121509303Y-73344608D01*
X121529191Y-73335826D01*
X121554329Y-73319030D01*
X121577808Y-73314359D01*
X121594959Y-73306787D01*
X121645151Y-73300964D01*
X121650000Y-73300000D01*
X122350000Y-73300000D01*
X122354850Y-73300964D01*
G37*
G36*
X109466742Y-72846601D02*
G01*
X109620687Y-72910367D01*
X109759234Y-73002941D01*
X109877059Y-73120766D01*
X109969633Y-73259313D01*
X110033399Y-73413258D01*
X110065907Y-73576685D01*
X110065907Y-73743315D01*
X110033399Y-73906742D01*
X109969633Y-74060687D01*
X109877059Y-74199234D01*
X109759234Y-74317059D01*
X109620687Y-74409633D01*
X109466742Y-74473399D01*
X109303315Y-74505907D01*
X109136685Y-74505907D01*
X108973258Y-74473399D01*
X108819313Y-74409633D01*
X108680766Y-74317059D01*
X108562941Y-74199234D01*
X108470367Y-74060687D01*
X108406601Y-73906742D01*
X108374093Y-73743315D01*
X108374093Y-73576685D01*
X108406601Y-73413258D01*
X108470367Y-73259313D01*
X108562941Y-73120766D01*
X108680766Y-73002941D01*
X108819313Y-72910367D01*
X108973258Y-72846601D01*
X109136685Y-72814093D01*
X109303315Y-72814093D01*
X109466742Y-72846601D01*
G37*
G36*
X127246742Y-72846601D02*
G01*
X127400687Y-72910367D01*
X127539234Y-73002941D01*
X127657059Y-73120766D01*
X127749633Y-73259313D01*
X127813399Y-73413258D01*
X127845907Y-73576685D01*
X127845907Y-73743315D01*
X127813399Y-73906742D01*
X127749633Y-74060687D01*
X127657059Y-74199234D01*
X127539234Y-74317059D01*
X127400687Y-74409633D01*
X127246742Y-74473399D01*
X127083315Y-74505907D01*
X126916685Y-74505907D01*
X126753258Y-74473399D01*
X126599313Y-74409633D01*
X126460766Y-74317059D01*
X126342941Y-74199234D01*
X126250367Y-74060687D01*
X126186601Y-73906742D01*
X126154093Y-73743315D01*
X126154093Y-73576685D01*
X126186601Y-73413258D01*
X126250367Y-73259313D01*
X126342941Y-73120766D01*
X126460766Y-73002941D01*
X126599313Y-72910367D01*
X126753258Y-72846601D01*
X126916685Y-72814093D01*
X127083315Y-72814093D01*
X127246742Y-72846601D01*
G37*
G36*
X113767350Y-72775964D02*
G01*
X113817540Y-72781787D01*
X113834689Y-72789359D01*
X113858171Y-72794030D01*
X113883310Y-72810827D01*
X113903196Y-72819608D01*
X113916777Y-72833189D01*
X113939277Y-72848223D01*
X113954310Y-72870722D01*
X113967891Y-72884303D01*
X113976670Y-72904186D01*
X113993470Y-72929329D01*
X113998141Y-72952812D01*
X114005712Y-72969959D01*
X114011533Y-73020139D01*
X114012500Y-73025000D01*
X114012500Y-73975000D01*
X114011532Y-73979863D01*
X114005712Y-74030040D01*
X113998141Y-74047185D01*
X113993470Y-74070671D01*
X113976669Y-74095815D01*
X113967891Y-74115696D01*
X113954312Y-74129274D01*
X113939277Y-74151777D01*
X113916774Y-74166812D01*
X113903196Y-74180391D01*
X113883315Y-74189169D01*
X113858171Y-74205970D01*
X113834685Y-74210641D01*
X113817540Y-74218212D01*
X113767361Y-74224032D01*
X113762500Y-74225000D01*
X113087500Y-74225000D01*
X113082638Y-74224032D01*
X113032459Y-74218212D01*
X113015312Y-74210641D01*
X112991829Y-74205970D01*
X112966686Y-74189170D01*
X112946803Y-74180391D01*
X112933222Y-74166810D01*
X112910723Y-74151777D01*
X112895689Y-74129277D01*
X112882108Y-74115696D01*
X112873327Y-74095810D01*
X112856530Y-74070671D01*
X112851859Y-74047189D01*
X112844287Y-74030040D01*
X112838464Y-73979849D01*
X112837500Y-73975000D01*
X112837500Y-73025000D01*
X112838464Y-73020150D01*
X112844287Y-72969959D01*
X112851859Y-72952808D01*
X112856530Y-72929329D01*
X112873326Y-72904191D01*
X112882108Y-72884303D01*
X112895691Y-72870719D01*
X112910723Y-72848223D01*
X112933219Y-72833191D01*
X112946803Y-72819608D01*
X112966691Y-72810826D01*
X112991829Y-72794030D01*
X113015308Y-72789359D01*
X113032459Y-72781787D01*
X113082651Y-72775964D01*
X113087500Y-72775000D01*
X113762500Y-72775000D01*
X113767350Y-72775964D01*
G37*
G36*
X115842350Y-72775964D02*
G01*
X115892540Y-72781787D01*
X115909689Y-72789359D01*
X115933171Y-72794030D01*
X115958310Y-72810827D01*
X115978196Y-72819608D01*
X115991777Y-72833189D01*
X116014277Y-72848223D01*
X116029310Y-72870722D01*
X116042891Y-72884303D01*
X116051670Y-72904186D01*
X116068470Y-72929329D01*
X116073141Y-72952812D01*
X116080712Y-72969959D01*
X116086533Y-73020139D01*
X116087500Y-73025000D01*
X116087500Y-73975000D01*
X116086532Y-73979863D01*
X116080712Y-74030040D01*
X116073141Y-74047185D01*
X116068470Y-74070671D01*
X116051669Y-74095815D01*
X116042891Y-74115696D01*
X116029312Y-74129274D01*
X116014277Y-74151777D01*
X115991774Y-74166812D01*
X115978196Y-74180391D01*
X115958315Y-74189169D01*
X115933171Y-74205970D01*
X115909685Y-74210641D01*
X115892540Y-74218212D01*
X115842361Y-74224032D01*
X115837500Y-74225000D01*
X115162500Y-74225000D01*
X115157638Y-74224032D01*
X115107459Y-74218212D01*
X115090312Y-74210641D01*
X115066829Y-74205970D01*
X115041686Y-74189170D01*
X115021803Y-74180391D01*
X115008222Y-74166810D01*
X114985723Y-74151777D01*
X114970689Y-74129277D01*
X114957108Y-74115696D01*
X114948327Y-74095810D01*
X114931530Y-74070671D01*
X114926859Y-74047189D01*
X114919287Y-74030040D01*
X114913464Y-73979849D01*
X114912500Y-73975000D01*
X114912500Y-73025000D01*
X114913464Y-73020150D01*
X114919287Y-72969959D01*
X114926859Y-72952808D01*
X114931530Y-72929329D01*
X114948326Y-72904191D01*
X114957108Y-72884303D01*
X114970691Y-72870719D01*
X114985723Y-72848223D01*
X115008219Y-72833191D01*
X115021803Y-72819608D01*
X115041691Y-72810826D01*
X115066829Y-72794030D01*
X115090308Y-72789359D01*
X115107459Y-72781787D01*
X115157651Y-72775964D01*
X115162500Y-72775000D01*
X115837500Y-72775000D01*
X115842350Y-72775964D01*
G37*
G36*
X109466742Y-70306601D02*
G01*
X109620687Y-70370367D01*
X109759234Y-70462941D01*
X109877059Y-70580766D01*
X109969633Y-70719313D01*
X110033399Y-70873258D01*
X110065907Y-71036685D01*
X110065907Y-71203315D01*
X110033399Y-71366742D01*
X109969633Y-71520687D01*
X109877059Y-71659234D01*
X109759234Y-71777059D01*
X109620687Y-71869633D01*
X109466742Y-71933399D01*
X109303315Y-71965907D01*
X109136685Y-71965907D01*
X108973258Y-71933399D01*
X108819313Y-71869633D01*
X108680766Y-71777059D01*
X108562941Y-71659234D01*
X108470367Y-71520687D01*
X108406601Y-71366742D01*
X108374093Y-71203315D01*
X108374093Y-71036685D01*
X108406601Y-70873258D01*
X108470367Y-70719313D01*
X108562941Y-70580766D01*
X108680766Y-70462941D01*
X108819313Y-70370367D01*
X108973258Y-70306601D01*
X109136685Y-70274093D01*
X109303315Y-70274093D01*
X109466742Y-70306601D01*
G37*
G36*
X127246742Y-70306601D02*
G01*
X127400687Y-70370367D01*
X127539234Y-70462941D01*
X127657059Y-70580766D01*
X127749633Y-70719313D01*
X127813399Y-70873258D01*
X127845907Y-71036685D01*
X127845907Y-71203315D01*
X127813399Y-71366742D01*
X127749633Y-71520687D01*
X127657059Y-71659234D01*
X127539234Y-71777059D01*
X127400687Y-71869633D01*
X127246742Y-71933399D01*
X127083315Y-71965907D01*
X126916685Y-71965907D01*
X126753258Y-71933399D01*
X126599313Y-71869633D01*
X126460766Y-71777059D01*
X126342941Y-71659234D01*
X126250367Y-71520687D01*
X126186601Y-71366742D01*
X126154093Y-71203315D01*
X126154093Y-71036685D01*
X126186601Y-70873258D01*
X126250367Y-70719313D01*
X126342941Y-70580766D01*
X126460766Y-70462941D01*
X126599313Y-70370367D01*
X126753258Y-70306601D01*
X126916685Y-70274093D01*
X127083315Y-70274093D01*
X127246742Y-70306601D01*
G37*
G36*
X118454850Y-70400964D02*
G01*
X118505040Y-70406787D01*
X118522189Y-70414359D01*
X118545671Y-70419030D01*
X118570810Y-70435827D01*
X118590696Y-70444608D01*
X118604277Y-70458189D01*
X118626777Y-70473223D01*
X118641810Y-70495722D01*
X118655391Y-70509303D01*
X118664170Y-70529186D01*
X118680970Y-70554329D01*
X118685641Y-70577812D01*
X118693212Y-70594959D01*
X118699033Y-70645139D01*
X118700000Y-70650000D01*
X118700000Y-71350000D01*
X118699032Y-71354863D01*
X118693212Y-71405040D01*
X118685641Y-71422185D01*
X118680970Y-71445671D01*
X118664169Y-71470815D01*
X118655391Y-71490696D01*
X118641812Y-71504274D01*
X118626777Y-71526777D01*
X118604274Y-71541812D01*
X118590696Y-71555391D01*
X118570815Y-71564169D01*
X118545671Y-71580970D01*
X118522185Y-71585641D01*
X118505040Y-71593212D01*
X118454861Y-71599032D01*
X118450000Y-71600000D01*
X117550000Y-71600000D01*
X117545138Y-71599032D01*
X117494959Y-71593212D01*
X117477812Y-71585641D01*
X117454329Y-71580970D01*
X117429186Y-71564170D01*
X117409303Y-71555391D01*
X117395722Y-71541810D01*
X117373223Y-71526777D01*
X117358189Y-71504277D01*
X117344608Y-71490696D01*
X117335827Y-71470810D01*
X117319030Y-71445671D01*
X117314359Y-71422189D01*
X117306787Y-71405040D01*
X117300964Y-71354849D01*
X117300000Y-71350000D01*
X117300000Y-70650000D01*
X117300964Y-70645150D01*
X117306787Y-70594959D01*
X117314359Y-70577808D01*
X117319030Y-70554329D01*
X117335826Y-70529191D01*
X117344608Y-70509303D01*
X117358191Y-70495719D01*
X117373223Y-70473223D01*
X117395719Y-70458191D01*
X117409303Y-70444608D01*
X117429191Y-70435826D01*
X117454329Y-70419030D01*
X117477808Y-70414359D01*
X117494959Y-70406787D01*
X117545151Y-70400964D01*
X117550000Y-70400000D01*
X118450000Y-70400000D01*
X118454850Y-70400964D01*
G37*
G36*
X114929850Y-68950964D02*
G01*
X114980040Y-68956787D01*
X114997189Y-68964359D01*
X115020671Y-68969030D01*
X115045810Y-68985827D01*
X115065696Y-68994608D01*
X115079277Y-69008189D01*
X115101777Y-69023223D01*
X115116810Y-69045722D01*
X115130391Y-69059303D01*
X115139170Y-69079186D01*
X115155970Y-69104329D01*
X115160641Y-69127812D01*
X115168212Y-69144959D01*
X115174033Y-69195139D01*
X115175000Y-69200000D01*
X115175000Y-69850000D01*
X115174032Y-69854863D01*
X115168212Y-69905040D01*
X115160641Y-69922185D01*
X115155970Y-69945671D01*
X115139169Y-69970815D01*
X115130391Y-69990696D01*
X115116812Y-70004274D01*
X115101777Y-70026777D01*
X115079274Y-70041812D01*
X115065696Y-70055391D01*
X115045815Y-70064169D01*
X115020671Y-70080970D01*
X114997185Y-70085641D01*
X114980040Y-70093212D01*
X114929861Y-70099032D01*
X114925000Y-70100000D01*
X114025000Y-70100000D01*
X114020138Y-70099032D01*
X113969959Y-70093212D01*
X113952812Y-70085641D01*
X113929329Y-70080970D01*
X113904186Y-70064170D01*
X113884303Y-70055391D01*
X113870722Y-70041810D01*
X113848223Y-70026777D01*
X113833189Y-70004277D01*
X113819608Y-69990696D01*
X113810827Y-69970810D01*
X113794030Y-69945671D01*
X113789359Y-69922189D01*
X113781787Y-69905040D01*
X113775964Y-69854849D01*
X113775000Y-69850000D01*
X113775000Y-69200000D01*
X113775964Y-69195150D01*
X113781787Y-69144959D01*
X113789359Y-69127808D01*
X113794030Y-69104329D01*
X113810826Y-69079191D01*
X113819608Y-69059303D01*
X113833191Y-69045719D01*
X113848223Y-69023223D01*
X113870719Y-69008191D01*
X113884303Y-68994608D01*
X113904191Y-68985826D01*
X113929329Y-68969030D01*
X113952808Y-68964359D01*
X113969959Y-68956787D01*
X114020151Y-68950964D01*
X114025000Y-68950000D01*
X114925000Y-68950000D01*
X114929850Y-68950964D01*
G37*
G36*
X121954850Y-68950964D02*
G01*
X122005040Y-68956787D01*
X122022189Y-68964359D01*
X122045671Y-68969030D01*
X122070810Y-68985827D01*
X122090696Y-68994608D01*
X122104277Y-69008189D01*
X122126777Y-69023223D01*
X122141810Y-69045722D01*
X122155391Y-69059303D01*
X122164170Y-69079186D01*
X122180970Y-69104329D01*
X122185641Y-69127812D01*
X122193212Y-69144959D01*
X122199033Y-69195139D01*
X122200000Y-69200000D01*
X122200000Y-69850000D01*
X122199032Y-69854863D01*
X122193212Y-69905040D01*
X122185641Y-69922185D01*
X122180970Y-69945671D01*
X122164169Y-69970815D01*
X122155391Y-69990696D01*
X122141812Y-70004274D01*
X122126777Y-70026777D01*
X122104274Y-70041812D01*
X122090696Y-70055391D01*
X122070815Y-70064169D01*
X122045671Y-70080970D01*
X122022185Y-70085641D01*
X122005040Y-70093212D01*
X121954861Y-70099032D01*
X121950000Y-70100000D01*
X121050000Y-70100000D01*
X121045138Y-70099032D01*
X120994959Y-70093212D01*
X120977812Y-70085641D01*
X120954329Y-70080970D01*
X120929186Y-70064170D01*
X120909303Y-70055391D01*
X120895722Y-70041810D01*
X120873223Y-70026777D01*
X120858189Y-70004277D01*
X120844608Y-69990696D01*
X120835827Y-69970810D01*
X120819030Y-69945671D01*
X120814359Y-69922189D01*
X120806787Y-69905040D01*
X120800964Y-69854849D01*
X120800000Y-69850000D01*
X120800000Y-69200000D01*
X120800964Y-69195150D01*
X120806787Y-69144959D01*
X120814359Y-69127808D01*
X120819030Y-69104329D01*
X120835826Y-69079191D01*
X120844608Y-69059303D01*
X120858191Y-69045719D01*
X120873223Y-69023223D01*
X120895719Y-69008191D01*
X120909303Y-68994608D01*
X120929191Y-68985826D01*
X120954329Y-68969030D01*
X120977808Y-68964359D01*
X120994959Y-68956787D01*
X121045151Y-68950964D01*
X121050000Y-68950000D01*
X121950000Y-68950000D01*
X121954850Y-68950964D01*
G37*
G36*
X118454850Y-68400964D02*
G01*
X118505040Y-68406787D01*
X118522189Y-68414359D01*
X118545671Y-68419030D01*
X118570810Y-68435827D01*
X118590696Y-68444608D01*
X118604277Y-68458189D01*
X118626777Y-68473223D01*
X118641810Y-68495722D01*
X118655391Y-68509303D01*
X118664170Y-68529186D01*
X118680970Y-68554329D01*
X118685641Y-68577812D01*
X118693212Y-68594959D01*
X118699033Y-68645139D01*
X118700000Y-68650000D01*
X118700000Y-69350000D01*
X118699032Y-69354863D01*
X118693212Y-69405040D01*
X118685641Y-69422185D01*
X118680970Y-69445671D01*
X118664169Y-69470815D01*
X118655391Y-69490696D01*
X118641812Y-69504274D01*
X118626777Y-69526777D01*
X118604274Y-69541812D01*
X118590696Y-69555391D01*
X118570815Y-69564169D01*
X118545671Y-69580970D01*
X118522185Y-69585641D01*
X118505040Y-69593212D01*
X118454861Y-69599032D01*
X118450000Y-69600000D01*
X117550000Y-69600000D01*
X117545138Y-69599032D01*
X117494959Y-69593212D01*
X117477812Y-69585641D01*
X117454329Y-69580970D01*
X117429186Y-69564170D01*
X117409303Y-69555391D01*
X117395722Y-69541810D01*
X117373223Y-69526777D01*
X117358189Y-69504277D01*
X117344608Y-69490696D01*
X117335827Y-69470810D01*
X117319030Y-69445671D01*
X117314359Y-69422189D01*
X117306787Y-69405040D01*
X117300964Y-69354849D01*
X117300000Y-69350000D01*
X117300000Y-68650000D01*
X117300964Y-68645150D01*
X117306787Y-68594959D01*
X117314359Y-68577808D01*
X117319030Y-68554329D01*
X117335826Y-68529191D01*
X117344608Y-68509303D01*
X117358191Y-68495719D01*
X117373223Y-68473223D01*
X117395719Y-68458191D01*
X117409303Y-68444608D01*
X117429191Y-68435826D01*
X117454329Y-68419030D01*
X117477808Y-68414359D01*
X117494959Y-68406787D01*
X117545151Y-68400964D01*
X117550000Y-68400000D01*
X118450000Y-68400000D01*
X118454850Y-68400964D01*
G37*
G36*
X109466742Y-67766601D02*
G01*
X109620687Y-67830367D01*
X109759234Y-67922941D01*
X109877059Y-68040766D01*
X109969633Y-68179313D01*
X110033399Y-68333258D01*
X110065907Y-68496685D01*
X110065907Y-68663315D01*
X110033399Y-68826742D01*
X109969633Y-68980687D01*
X109877059Y-69119234D01*
X109759234Y-69237059D01*
X109620687Y-69329633D01*
X109466742Y-69393399D01*
X109303315Y-69425907D01*
X109136685Y-69425907D01*
X108973258Y-69393399D01*
X108819313Y-69329633D01*
X108680766Y-69237059D01*
X108562941Y-69119234D01*
X108470367Y-68980687D01*
X108406601Y-68826742D01*
X108374093Y-68663315D01*
X108374093Y-68496685D01*
X108406601Y-68333258D01*
X108470367Y-68179313D01*
X108562941Y-68040766D01*
X108680766Y-67922941D01*
X108819313Y-67830367D01*
X108973258Y-67766601D01*
X109136685Y-67734093D01*
X109303315Y-67734093D01*
X109466742Y-67766601D01*
G37*
G36*
X127246742Y-67766601D02*
G01*
X127400687Y-67830367D01*
X127539234Y-67922941D01*
X127657059Y-68040766D01*
X127749633Y-68179313D01*
X127813399Y-68333258D01*
X127845907Y-68496685D01*
X127845907Y-68663315D01*
X127813399Y-68826742D01*
X127749633Y-68980687D01*
X127657059Y-69119234D01*
X127539234Y-69237059D01*
X127400687Y-69329633D01*
X127246742Y-69393399D01*
X127083315Y-69425907D01*
X126916685Y-69425907D01*
X126753258Y-69393399D01*
X126599313Y-69329633D01*
X126460766Y-69237059D01*
X126342941Y-69119234D01*
X126250367Y-68980687D01*
X126186601Y-68826742D01*
X126154093Y-68663315D01*
X126154093Y-68496685D01*
X126186601Y-68333258D01*
X126250367Y-68179313D01*
X126342941Y-68040766D01*
X126460766Y-67922941D01*
X126599313Y-67830367D01*
X126753258Y-67766601D01*
X126916685Y-67734093D01*
X127083315Y-67734093D01*
X127246742Y-67766601D01*
G37*
G36*
X114929850Y-66900964D02*
G01*
X114980040Y-66906787D01*
X114997189Y-66914359D01*
X115020671Y-66919030D01*
X115045810Y-66935827D01*
X115065696Y-66944608D01*
X115079277Y-66958189D01*
X115101777Y-66973223D01*
X115116810Y-66995722D01*
X115130391Y-67009303D01*
X115139170Y-67029186D01*
X115155970Y-67054329D01*
X115160641Y-67077812D01*
X115168212Y-67094959D01*
X115174033Y-67145139D01*
X115175000Y-67150000D01*
X115175000Y-67800000D01*
X115174032Y-67804863D01*
X115168212Y-67855040D01*
X115160641Y-67872185D01*
X115155970Y-67895671D01*
X115139169Y-67920815D01*
X115130391Y-67940696D01*
X115116812Y-67954274D01*
X115101777Y-67976777D01*
X115079274Y-67991812D01*
X115065696Y-68005391D01*
X115045815Y-68014169D01*
X115020671Y-68030970D01*
X114997185Y-68035641D01*
X114980040Y-68043212D01*
X114929861Y-68049032D01*
X114925000Y-68050000D01*
X114025000Y-68050000D01*
X114020138Y-68049032D01*
X113969959Y-68043212D01*
X113952812Y-68035641D01*
X113929329Y-68030970D01*
X113904186Y-68014170D01*
X113884303Y-68005391D01*
X113870722Y-67991810D01*
X113848223Y-67976777D01*
X113833189Y-67954277D01*
X113819608Y-67940696D01*
X113810827Y-67920810D01*
X113794030Y-67895671D01*
X113789359Y-67872189D01*
X113781787Y-67855040D01*
X113775964Y-67804849D01*
X113775000Y-67800000D01*
X113775000Y-67150000D01*
X113775964Y-67145150D01*
X113781787Y-67094959D01*
X113789359Y-67077808D01*
X113794030Y-67054329D01*
X113810826Y-67029191D01*
X113819608Y-67009303D01*
X113833191Y-66995719D01*
X113848223Y-66973223D01*
X113870719Y-66958191D01*
X113884303Y-66944608D01*
X113904191Y-66935826D01*
X113929329Y-66919030D01*
X113952808Y-66914359D01*
X113969959Y-66906787D01*
X114020151Y-66900964D01*
X114025000Y-66900000D01*
X114925000Y-66900000D01*
X114929850Y-66900964D01*
G37*
G36*
X121954850Y-66900964D02*
G01*
X122005040Y-66906787D01*
X122022189Y-66914359D01*
X122045671Y-66919030D01*
X122070810Y-66935827D01*
X122090696Y-66944608D01*
X122104277Y-66958189D01*
X122126777Y-66973223D01*
X122141810Y-66995722D01*
X122155391Y-67009303D01*
X122164170Y-67029186D01*
X122180970Y-67054329D01*
X122185641Y-67077812D01*
X122193212Y-67094959D01*
X122199033Y-67145139D01*
X122200000Y-67150000D01*
X122200000Y-67800000D01*
X122199032Y-67804863D01*
X122193212Y-67855040D01*
X122185641Y-67872185D01*
X122180970Y-67895671D01*
X122164169Y-67920815D01*
X122155391Y-67940696D01*
X122141812Y-67954274D01*
X122126777Y-67976777D01*
X122104274Y-67991812D01*
X122090696Y-68005391D01*
X122070815Y-68014169D01*
X122045671Y-68030970D01*
X122022185Y-68035641D01*
X122005040Y-68043212D01*
X121954861Y-68049032D01*
X121950000Y-68050000D01*
X121050000Y-68050000D01*
X121045138Y-68049032D01*
X120994959Y-68043212D01*
X120977812Y-68035641D01*
X120954329Y-68030970D01*
X120929186Y-68014170D01*
X120909303Y-68005391D01*
X120895722Y-67991810D01*
X120873223Y-67976777D01*
X120858189Y-67954277D01*
X120844608Y-67940696D01*
X120835827Y-67920810D01*
X120819030Y-67895671D01*
X120814359Y-67872189D01*
X120806787Y-67855040D01*
X120800964Y-67804849D01*
X120800000Y-67800000D01*
X120800000Y-67150000D01*
X120800964Y-67145150D01*
X120806787Y-67094959D01*
X120814359Y-67077808D01*
X120819030Y-67054329D01*
X120835826Y-67029191D01*
X120844608Y-67009303D01*
X120858191Y-66995719D01*
X120873223Y-66973223D01*
X120895719Y-66958191D01*
X120909303Y-66944608D01*
X120929191Y-66935826D01*
X120954329Y-66919030D01*
X120977808Y-66914359D01*
X120994959Y-66906787D01*
X121045151Y-66900964D01*
X121050000Y-66900000D01*
X121950000Y-66900000D01*
X121954850Y-66900964D01*
G37*
G36*
X109466742Y-65226601D02*
G01*
X109620687Y-65290367D01*
X109759234Y-65382941D01*
X109877059Y-65500766D01*
X109969633Y-65639313D01*
X110033399Y-65793258D01*
X110065907Y-65956685D01*
X110065907Y-66123315D01*
X110033399Y-66286742D01*
X109969633Y-66440687D01*
X109877059Y-66579234D01*
X109759234Y-66697059D01*
X109620687Y-66789633D01*
X109466742Y-66853399D01*
X109303315Y-66885907D01*
X109136685Y-66885907D01*
X108973258Y-66853399D01*
X108819313Y-66789633D01*
X108680766Y-66697059D01*
X108562941Y-66579234D01*
X108470367Y-66440687D01*
X108406601Y-66286742D01*
X108374093Y-66123315D01*
X108374093Y-65956685D01*
X108406601Y-65793258D01*
X108470367Y-65639313D01*
X108562941Y-65500766D01*
X108680766Y-65382941D01*
X108819313Y-65290367D01*
X108973258Y-65226601D01*
X109136685Y-65194093D01*
X109303315Y-65194093D01*
X109466742Y-65226601D01*
G37*
G36*
X127246742Y-65226601D02*
G01*
X127400687Y-65290367D01*
X127539234Y-65382941D01*
X127657059Y-65500766D01*
X127749633Y-65639313D01*
X127813399Y-65793258D01*
X127845907Y-65956685D01*
X127845907Y-66123315D01*
X127813399Y-66286742D01*
X127749633Y-66440687D01*
X127657059Y-66579234D01*
X127539234Y-66697059D01*
X127400687Y-66789633D01*
X127246742Y-66853399D01*
X127083315Y-66885907D01*
X126916685Y-66885907D01*
X126753258Y-66853399D01*
X126599313Y-66789633D01*
X126460766Y-66697059D01*
X126342941Y-66579234D01*
X126250367Y-66440687D01*
X126186601Y-66286742D01*
X126154093Y-66123315D01*
X126154093Y-65956685D01*
X126186601Y-65793258D01*
X126250367Y-65639313D01*
X126342941Y-65500766D01*
X126460766Y-65382941D01*
X126599313Y-65290367D01*
X126753258Y-65226601D01*
X126916685Y-65194093D01*
X127083315Y-65194093D01*
X127246742Y-65226601D01*
G37*
G36*
X118525000Y-65000000D02*
G01*
X117525000Y-65000000D01*
X117525000Y-63000000D01*
X118525000Y-63000000D01*
X118525000Y-65000000D01*
G37*
G36*
X123025000Y-65000000D02*
G01*
X121975000Y-65000000D01*
X121975000Y-63000000D01*
X123025000Y-63000000D01*
X123025000Y-65000000D01*
G37*
G36*
X113354850Y-63300964D02*
G01*
X113405040Y-63306787D01*
X113422189Y-63314359D01*
X113445671Y-63319030D01*
X113470810Y-63335827D01*
X113490696Y-63344608D01*
X113504277Y-63358189D01*
X113526777Y-63373223D01*
X113541810Y-63395722D01*
X113555391Y-63409303D01*
X113564170Y-63429186D01*
X113580970Y-63454329D01*
X113585641Y-63477812D01*
X113593212Y-63494959D01*
X113599033Y-63545139D01*
X113600000Y-63550000D01*
X113600000Y-64450000D01*
X113599032Y-64454863D01*
X113593212Y-64505040D01*
X113585641Y-64522185D01*
X113580970Y-64545671D01*
X113564169Y-64570815D01*
X113555391Y-64590696D01*
X113541812Y-64604274D01*
X113526777Y-64626777D01*
X113504274Y-64641812D01*
X113490696Y-64655391D01*
X113470815Y-64664169D01*
X113445671Y-64680970D01*
X113422185Y-64685641D01*
X113405040Y-64693212D01*
X113354861Y-64699032D01*
X113350000Y-64700000D01*
X112650000Y-64700000D01*
X112645138Y-64699032D01*
X112594959Y-64693212D01*
X112577812Y-64685641D01*
X112554329Y-64680970D01*
X112529186Y-64664170D01*
X112509303Y-64655391D01*
X112495722Y-64641810D01*
X112473223Y-64626777D01*
X112458189Y-64604277D01*
X112444608Y-64590696D01*
X112435827Y-64570810D01*
X112419030Y-64545671D01*
X112414359Y-64522189D01*
X112406787Y-64505040D01*
X112400964Y-64454849D01*
X112400000Y-64450000D01*
X112400000Y-63550000D01*
X112400964Y-63545150D01*
X112406787Y-63494959D01*
X112414359Y-63477808D01*
X112419030Y-63454329D01*
X112435826Y-63429191D01*
X112444608Y-63409303D01*
X112458191Y-63395719D01*
X112473223Y-63373223D01*
X112495719Y-63358191D01*
X112509303Y-63344608D01*
X112529191Y-63335826D01*
X112554329Y-63319030D01*
X112577808Y-63314359D01*
X112594959Y-63306787D01*
X112645151Y-63300964D01*
X112650000Y-63300000D01*
X113350000Y-63300000D01*
X113354850Y-63300964D01*
G37*
G36*
X115354850Y-63300964D02*
G01*
X115405040Y-63306787D01*
X115422189Y-63314359D01*
X115445671Y-63319030D01*
X115470810Y-63335827D01*
X115490696Y-63344608D01*
X115504277Y-63358189D01*
X115526777Y-63373223D01*
X115541810Y-63395722D01*
X115555391Y-63409303D01*
X115564170Y-63429186D01*
X115580970Y-63454329D01*
X115585641Y-63477812D01*
X115593212Y-63494959D01*
X115599033Y-63545139D01*
X115600000Y-63550000D01*
X115600000Y-64450000D01*
X115599032Y-64454863D01*
X115593212Y-64505040D01*
X115585641Y-64522185D01*
X115580970Y-64545671D01*
X115564169Y-64570815D01*
X115555391Y-64590696D01*
X115541812Y-64604274D01*
X115526777Y-64626777D01*
X115504274Y-64641812D01*
X115490696Y-64655391D01*
X115470815Y-64664169D01*
X115445671Y-64680970D01*
X115422185Y-64685641D01*
X115405040Y-64693212D01*
X115354861Y-64699032D01*
X115350000Y-64700000D01*
X114650000Y-64700000D01*
X114645138Y-64699032D01*
X114594959Y-64693212D01*
X114577812Y-64685641D01*
X114554329Y-64680970D01*
X114529186Y-64664170D01*
X114509303Y-64655391D01*
X114495722Y-64641810D01*
X114473223Y-64626777D01*
X114458189Y-64604277D01*
X114444608Y-64590696D01*
X114435827Y-64570810D01*
X114419030Y-64545671D01*
X114414359Y-64522189D01*
X114406787Y-64505040D01*
X114400964Y-64454849D01*
X114400000Y-64450000D01*
X114400000Y-63550000D01*
X114400964Y-63545150D01*
X114406787Y-63494959D01*
X114414359Y-63477808D01*
X114419030Y-63454329D01*
X114435826Y-63429191D01*
X114444608Y-63409303D01*
X114458191Y-63395719D01*
X114473223Y-63373223D01*
X114495719Y-63358191D01*
X114509303Y-63344608D01*
X114529191Y-63335826D01*
X114554329Y-63319030D01*
X114577808Y-63314359D01*
X114594959Y-63306787D01*
X114645151Y-63300964D01*
X114650000Y-63300000D01*
X115350000Y-63300000D01*
X115354850Y-63300964D01*
G37*
G36*
X109466742Y-62686601D02*
G01*
X109620687Y-62750367D01*
X109759234Y-62842941D01*
X109877059Y-62960766D01*
X109969633Y-63099313D01*
X110033399Y-63253258D01*
X110065907Y-63416685D01*
X110065907Y-63583315D01*
X110033399Y-63746742D01*
X109969633Y-63900687D01*
X109877059Y-64039234D01*
X109759234Y-64157059D01*
X109620687Y-64249633D01*
X109466742Y-64313399D01*
X109303315Y-64345907D01*
X109136685Y-64345907D01*
X108973258Y-64313399D01*
X108819313Y-64249633D01*
X108680766Y-64157059D01*
X108562941Y-64039234D01*
X108470367Y-63900687D01*
X108406601Y-63746742D01*
X108374093Y-63583315D01*
X108374093Y-63416685D01*
X108406601Y-63253258D01*
X108470367Y-63099313D01*
X108562941Y-62960766D01*
X108680766Y-62842941D01*
X108819313Y-62750367D01*
X108973258Y-62686601D01*
X109136685Y-62654093D01*
X109303315Y-62654093D01*
X109466742Y-62686601D01*
G37*
G36*
X127246742Y-62686601D02*
G01*
X127400687Y-62750367D01*
X127539234Y-62842941D01*
X127657059Y-62960766D01*
X127749633Y-63099313D01*
X127813399Y-63253258D01*
X127845907Y-63416685D01*
X127845907Y-63583315D01*
X127813399Y-63746742D01*
X127749633Y-63900687D01*
X127657059Y-64039234D01*
X127539234Y-64157059D01*
X127400687Y-64249633D01*
X127246742Y-64313399D01*
X127083315Y-64345907D01*
X126916685Y-64345907D01*
X126753258Y-64313399D01*
X126599313Y-64249633D01*
X126460766Y-64157059D01*
X126342941Y-64039234D01*
X126250367Y-63900687D01*
X126186601Y-63746742D01*
X126154093Y-63583315D01*
X126154093Y-63416685D01*
X126186601Y-63253258D01*
X126250367Y-63099313D01*
X126342941Y-62960766D01*
X126460766Y-62842941D01*
X126599313Y-62750367D01*
X126753258Y-62686601D01*
X126916685Y-62654093D01*
X127083315Y-62654093D01*
X127246742Y-62686601D01*
G37*
G36*
X109466742Y-60146601D02*
G01*
X109620687Y-60210367D01*
X109759234Y-60302941D01*
X109877059Y-60420766D01*
X109969633Y-60559313D01*
X110033399Y-60713258D01*
X110065907Y-60876685D01*
X110065907Y-61043315D01*
X110033399Y-61206742D01*
X109969633Y-61360687D01*
X109877059Y-61499234D01*
X109759234Y-61617059D01*
X109620687Y-61709633D01*
X109466742Y-61773399D01*
X109303315Y-61805907D01*
X109136685Y-61805907D01*
X108973258Y-61773399D01*
X108819313Y-61709633D01*
X108680766Y-61617059D01*
X108562941Y-61499234D01*
X108470367Y-61360687D01*
X108406601Y-61206742D01*
X108374093Y-61043315D01*
X108374093Y-60876685D01*
X108406601Y-60713258D01*
X108470367Y-60559313D01*
X108562941Y-60420766D01*
X108680766Y-60302941D01*
X108819313Y-60210367D01*
X108973258Y-60146601D01*
X109136685Y-60114093D01*
X109303315Y-60114093D01*
X109466742Y-60146601D01*
G37*
G36*
X127246742Y-60146601D02*
G01*
X127400687Y-60210367D01*
X127539234Y-60302941D01*
X127657059Y-60420766D01*
X127749633Y-60559313D01*
X127813399Y-60713258D01*
X127845907Y-60876685D01*
X127845907Y-61043315D01*
X127813399Y-61206742D01*
X127749633Y-61360687D01*
X127657059Y-61499234D01*
X127539234Y-61617059D01*
X127400687Y-61709633D01*
X127246742Y-61773399D01*
X127083315Y-61805907D01*
X126916685Y-61805907D01*
X126753258Y-61773399D01*
X126599313Y-61709633D01*
X126460766Y-61617059D01*
X126342941Y-61499234D01*
X126250367Y-61360687D01*
X126186601Y-61206742D01*
X126154093Y-61043315D01*
X126154093Y-60876685D01*
X126186601Y-60713258D01*
X126250367Y-60559313D01*
X126342941Y-60420766D01*
X126460766Y-60302941D01*
X126599313Y-60210367D01*
X126753258Y-60146601D01*
X126916685Y-60114093D01*
X127083315Y-60114093D01*
X127246742Y-60146601D01*
G37*
G36*
X113354850Y-60300964D02*
G01*
X113405040Y-60306787D01*
X113422189Y-60314359D01*
X113445671Y-60319030D01*
X113470810Y-60335827D01*
X113490696Y-60344608D01*
X113504277Y-60358189D01*
X113526777Y-60373223D01*
X113541810Y-60395722D01*
X113555391Y-60409303D01*
X113564170Y-60429186D01*
X113580970Y-60454329D01*
X113585641Y-60477812D01*
X113593212Y-60494959D01*
X113599033Y-60545139D01*
X113600000Y-60550000D01*
X113600000Y-61450000D01*
X113599032Y-61454863D01*
X113593212Y-61505040D01*
X113585641Y-61522185D01*
X113580970Y-61545671D01*
X113564169Y-61570815D01*
X113555391Y-61590696D01*
X113541812Y-61604274D01*
X113526777Y-61626777D01*
X113504274Y-61641812D01*
X113490696Y-61655391D01*
X113470815Y-61664169D01*
X113445671Y-61680970D01*
X113422185Y-61685641D01*
X113405040Y-61693212D01*
X113354861Y-61699032D01*
X113350000Y-61700000D01*
X112650000Y-61700000D01*
X112645138Y-61699032D01*
X112594959Y-61693212D01*
X112577812Y-61685641D01*
X112554329Y-61680970D01*
X112529186Y-61664170D01*
X112509303Y-61655391D01*
X112495722Y-61641810D01*
X112473223Y-61626777D01*
X112458189Y-61604277D01*
X112444608Y-61590696D01*
X112435827Y-61570810D01*
X112419030Y-61545671D01*
X112414359Y-61522189D01*
X112406787Y-61505040D01*
X112400964Y-61454849D01*
X112400000Y-61450000D01*
X112400000Y-60550000D01*
X112400964Y-60545150D01*
X112406787Y-60494959D01*
X112414359Y-60477808D01*
X112419030Y-60454329D01*
X112435826Y-60429191D01*
X112444608Y-60409303D01*
X112458191Y-60395719D01*
X112473223Y-60373223D01*
X112495719Y-60358191D01*
X112509303Y-60344608D01*
X112529191Y-60335826D01*
X112554329Y-60319030D01*
X112577808Y-60314359D01*
X112594959Y-60306787D01*
X112645151Y-60300964D01*
X112650000Y-60300000D01*
X113350000Y-60300000D01*
X113354850Y-60300964D01*
G37*
G36*
X115354850Y-60300964D02*
G01*
X115405040Y-60306787D01*
X115422189Y-60314359D01*
X115445671Y-60319030D01*
X115470810Y-60335827D01*
X115490696Y-60344608D01*
X115504277Y-60358189D01*
X115526777Y-60373223D01*
X115541810Y-60395722D01*
X115555391Y-60409303D01*
X115564170Y-60429186D01*
X115580970Y-60454329D01*
X115585641Y-60477812D01*
X115593212Y-60494959D01*
X115599033Y-60545139D01*
X115600000Y-60550000D01*
X115600000Y-61450000D01*
X115599032Y-61454863D01*
X115593212Y-61505040D01*
X115585641Y-61522185D01*
X115580970Y-61545671D01*
X115564169Y-61570815D01*
X115555391Y-61590696D01*
X115541812Y-61604274D01*
X115526777Y-61626777D01*
X115504274Y-61641812D01*
X115490696Y-61655391D01*
X115470815Y-61664169D01*
X115445671Y-61680970D01*
X115422185Y-61685641D01*
X115405040Y-61693212D01*
X115354861Y-61699032D01*
X115350000Y-61700000D01*
X114650000Y-61700000D01*
X114645138Y-61699032D01*
X114594959Y-61693212D01*
X114577812Y-61685641D01*
X114554329Y-61680970D01*
X114529186Y-61664170D01*
X114509303Y-61655391D01*
X114495722Y-61641810D01*
X114473223Y-61626777D01*
X114458189Y-61604277D01*
X114444608Y-61590696D01*
X114435827Y-61570810D01*
X114419030Y-61545671D01*
X114414359Y-61522189D01*
X114406787Y-61505040D01*
X114400964Y-61454849D01*
X114400000Y-61450000D01*
X114400000Y-60550000D01*
X114400964Y-60545150D01*
X114406787Y-60494959D01*
X114414359Y-60477808D01*
X114419030Y-60454329D01*
X114435826Y-60429191D01*
X114444608Y-60409303D01*
X114458191Y-60395719D01*
X114473223Y-60373223D01*
X114495719Y-60358191D01*
X114509303Y-60344608D01*
X114529191Y-60335826D01*
X114554329Y-60319030D01*
X114577808Y-60314359D01*
X114594959Y-60306787D01*
X114645151Y-60300964D01*
X114650000Y-60300000D01*
X115350000Y-60300000D01*
X115354850Y-60300964D01*
G37*
G36*
X119767350Y-59775964D02*
G01*
X119817540Y-59781787D01*
X119834689Y-59789359D01*
X119858171Y-59794030D01*
X119883310Y-59810827D01*
X119903196Y-59819608D01*
X119916777Y-59833189D01*
X119939277Y-59848223D01*
X119954310Y-59870722D01*
X119967891Y-59884303D01*
X119976670Y-59904186D01*
X119993470Y-59929329D01*
X119998141Y-59952812D01*
X120005712Y-59969959D01*
X120011533Y-60020139D01*
X120012500Y-60025000D01*
X120012500Y-60975000D01*
X120011532Y-60979863D01*
X120005712Y-61030040D01*
X119998141Y-61047185D01*
X119993470Y-61070671D01*
X119976669Y-61095815D01*
X119967891Y-61115696D01*
X119954312Y-61129274D01*
X119939277Y-61151777D01*
X119916774Y-61166812D01*
X119903196Y-61180391D01*
X119883315Y-61189169D01*
X119858171Y-61205970D01*
X119834685Y-61210641D01*
X119817540Y-61218212D01*
X119767361Y-61224032D01*
X119762500Y-61225000D01*
X119087500Y-61225000D01*
X119082638Y-61224032D01*
X119032459Y-61218212D01*
X119015312Y-61210641D01*
X118991829Y-61205970D01*
X118966686Y-61189170D01*
X118946803Y-61180391D01*
X118933222Y-61166810D01*
X118910723Y-61151777D01*
X118895689Y-61129277D01*
X118882108Y-61115696D01*
X118873327Y-61095810D01*
X118856530Y-61070671D01*
X118851859Y-61047189D01*
X118844287Y-61030040D01*
X118838464Y-60979849D01*
X118837500Y-60975000D01*
X118837500Y-60025000D01*
X118838464Y-60020150D01*
X118844287Y-59969959D01*
X118851859Y-59952808D01*
X118856530Y-59929329D01*
X118873326Y-59904191D01*
X118882108Y-59884303D01*
X118895691Y-59870719D01*
X118910723Y-59848223D01*
X118933219Y-59833191D01*
X118946803Y-59819608D01*
X118966691Y-59810826D01*
X118991829Y-59794030D01*
X119015308Y-59789359D01*
X119032459Y-59781787D01*
X119082651Y-59775964D01*
X119087500Y-59775000D01*
X119762500Y-59775000D01*
X119767350Y-59775964D01*
G37*
G36*
X121842350Y-59775964D02*
G01*
X121892540Y-59781787D01*
X121909689Y-59789359D01*
X121933171Y-59794030D01*
X121958310Y-59810827D01*
X121978196Y-59819608D01*
X121991777Y-59833189D01*
X122014277Y-59848223D01*
X122029310Y-59870722D01*
X122042891Y-59884303D01*
X122051670Y-59904186D01*
X122068470Y-59929329D01*
X122073141Y-59952812D01*
X122080712Y-59969959D01*
X122086533Y-60020139D01*
X122087500Y-60025000D01*
X122087500Y-60975000D01*
X122086532Y-60979863D01*
X122080712Y-61030040D01*
X122073141Y-61047185D01*
X122068470Y-61070671D01*
X122051669Y-61095815D01*
X122042891Y-61115696D01*
X122029312Y-61129274D01*
X122014277Y-61151777D01*
X121991774Y-61166812D01*
X121978196Y-61180391D01*
X121958315Y-61189169D01*
X121933171Y-61205970D01*
X121909685Y-61210641D01*
X121892540Y-61218212D01*
X121842361Y-61224032D01*
X121837500Y-61225000D01*
X121162500Y-61225000D01*
X121157638Y-61224032D01*
X121107459Y-61218212D01*
X121090312Y-61210641D01*
X121066829Y-61205970D01*
X121041686Y-61189170D01*
X121021803Y-61180391D01*
X121008222Y-61166810D01*
X120985723Y-61151777D01*
X120970689Y-61129277D01*
X120957108Y-61115696D01*
X120948327Y-61095810D01*
X120931530Y-61070671D01*
X120926859Y-61047189D01*
X120919287Y-61030040D01*
X120913464Y-60979849D01*
X120912500Y-60975000D01*
X120912500Y-60025000D01*
X120913464Y-60020150D01*
X120919287Y-59969959D01*
X120926859Y-59952808D01*
X120931530Y-59929329D01*
X120948326Y-59904191D01*
X120957108Y-59884303D01*
X120970691Y-59870719D01*
X120985723Y-59848223D01*
X121008219Y-59833191D01*
X121021803Y-59819608D01*
X121041691Y-59810826D01*
X121066829Y-59794030D01*
X121090308Y-59789359D01*
X121107459Y-59781787D01*
X121157651Y-59775964D01*
X121162500Y-59775000D01*
X121837500Y-59775000D01*
X121842350Y-59775964D01*
G37*
G36*
X110070000Y-59270000D02*
G01*
X108370000Y-59270000D01*
X108370000Y-57570000D01*
X110070000Y-57570000D01*
X110070000Y-59270000D01*
G37*
G36*
X127246742Y-57606601D02*
G01*
X127400687Y-57670367D01*
X127539234Y-57762941D01*
X127657059Y-57880766D01*
X127749633Y-58019313D01*
X127813399Y-58173258D01*
X127845907Y-58336685D01*
X127845907Y-58503315D01*
X127813399Y-58666742D01*
X127749633Y-58820687D01*
X127657059Y-58959234D01*
X127539234Y-59077059D01*
X127400687Y-59169633D01*
X127246742Y-59233399D01*
X127083315Y-59265907D01*
X126916685Y-59265907D01*
X126753258Y-59233399D01*
X126599313Y-59169633D01*
X126460766Y-59077059D01*
X126342941Y-58959234D01*
X126250367Y-58820687D01*
X126186601Y-58666742D01*
X126154093Y-58503315D01*
X126154093Y-58336685D01*
X126186601Y-58173258D01*
X126250367Y-58019313D01*
X126342941Y-57880766D01*
X126460766Y-57762941D01*
X126599313Y-57670367D01*
X126753258Y-57606601D01*
X126916685Y-57574093D01*
X127083315Y-57574093D01*
X127246742Y-57606601D01*
G37*
G36*
X115270000Y-57850000D02*
G01*
X113570000Y-57850000D01*
X113570000Y-56150000D01*
X115270000Y-56150000D01*
X115270000Y-57850000D01*
G37*
G36*
X117206742Y-56186601D02*
G01*
X117360687Y-56250367D01*
X117499234Y-56342941D01*
X117617059Y-56460766D01*
X117709633Y-56599313D01*
X117773399Y-56753258D01*
X117805907Y-56916685D01*
X117805907Y-57083315D01*
X117773399Y-57246742D01*
X117709633Y-57400687D01*
X117617059Y-57539234D01*
X117499234Y-57657059D01*
X117360687Y-57749633D01*
X117206742Y-57813399D01*
X117043315Y-57845907D01*
X116876685Y-57845907D01*
X116713258Y-57813399D01*
X116559313Y-57749633D01*
X116420766Y-57657059D01*
X116302941Y-57539234D01*
X116210367Y-57400687D01*
X116146601Y-57246742D01*
X116114093Y-57083315D01*
X116114093Y-56916685D01*
X116146601Y-56753258D01*
X116210367Y-56599313D01*
X116302941Y-56460766D01*
X116420766Y-56342941D01*
X116559313Y-56250367D01*
X116713258Y-56186601D01*
X116876685Y-56154093D01*
X117043315Y-56154093D01*
X117206742Y-56186601D01*
G37*
G36*
X119746742Y-56186601D02*
G01*
X119900687Y-56250367D01*
X120039234Y-56342941D01*
X120157059Y-56460766D01*
X120249633Y-56599313D01*
X120313399Y-56753258D01*
X120345907Y-56916685D01*
X120345907Y-57083315D01*
X120313399Y-57246742D01*
X120249633Y-57400687D01*
X120157059Y-57539234D01*
X120039234Y-57657059D01*
X119900687Y-57749633D01*
X119746742Y-57813399D01*
X119583315Y-57845907D01*
X119416685Y-57845907D01*
X119253258Y-57813399D01*
X119099313Y-57749633D01*
X118960766Y-57657059D01*
X118842941Y-57539234D01*
X118750367Y-57400687D01*
X118686601Y-57246742D01*
X118654093Y-57083315D01*
X118654093Y-56916685D01*
X118686601Y-56753258D01*
X118750367Y-56599313D01*
X118842941Y-56460766D01*
X118960766Y-56342941D01*
X119099313Y-56250367D01*
X119253258Y-56186601D01*
X119416685Y-56154093D01*
X119583315Y-56154093D01*
X119746742Y-56186601D01*
G37*
G36*
X122286742Y-56186601D02*
G01*
X122440687Y-56250367D01*
X122579234Y-56342941D01*
X122697059Y-56460766D01*
X122789633Y-56599313D01*
X122853399Y-56753258D01*
X122885907Y-56916685D01*
X122885907Y-57083315D01*
X122853399Y-57246742D01*
X122789633Y-57400687D01*
X122697059Y-57539234D01*
X122579234Y-57657059D01*
X122440687Y-57749633D01*
X122286742Y-57813399D01*
X122123315Y-57845907D01*
X121956685Y-57845907D01*
X121793258Y-57813399D01*
X121639313Y-57749633D01*
X121500766Y-57657059D01*
X121382941Y-57539234D01*
X121290367Y-57400687D01*
X121226601Y-57246742D01*
X121194093Y-57083315D01*
X121194093Y-56916685D01*
X121226601Y-56753258D01*
X121290367Y-56599313D01*
X121382941Y-56460766D01*
X121500766Y-56342941D01*
X121639313Y-56250367D01*
X121793258Y-56186601D01*
X121956685Y-56154093D01*
X122123315Y-56154093D01*
X122286742Y-56186601D01*
G37*
M02*
