G04 #@! TF.GenerationSoftware,KiCad,Pcbnew,9.0.7*
G04 #@! TF.CreationDate,2026-02-04T18:18:03+11:00*
G04 #@! TF.ProjectId,g3507-base,67333530-372d-4626-9173-652e6b696361,rev?*
G04 #@! TF.SameCoordinates,Original*
G04 #@! TF.FileFunction,Legend,Bot*
G04 #@! TF.FilePolarity,Positive*
%FSLAX46Y46*%
G04 Gerber Fmt 4.6, Leading zero omitted, Abs format (unit mm)*
G04 Created by KiCad (PCBNEW 9.0.7) date 2026-02-04 18:18:03*
%MOMM*%
%LPD*%
G01*
G04 APERTURE LIST*
%ADD10C,0.152400*%
G04 APERTURE END LIST*
D10*
X117783622Y-58079803D02*
X117280460Y-58079803D01*
X117280460Y-58079803D02*
X117551394Y-58389441D01*
X117551394Y-58389441D02*
X117435279Y-58389441D01*
X117435279Y-58389441D02*
X117357870Y-58428146D01*
X117357870Y-58428146D02*
X117319165Y-58466851D01*
X117319165Y-58466851D02*
X117280460Y-58544260D01*
X117280460Y-58544260D02*
X117280460Y-58737784D01*
X117280460Y-58737784D02*
X117319165Y-58815194D01*
X117319165Y-58815194D02*
X117357870Y-58853899D01*
X117357870Y-58853899D02*
X117435279Y-58892603D01*
X117435279Y-58892603D02*
X117667508Y-58892603D01*
X117667508Y-58892603D02*
X117744917Y-58853899D01*
X117744917Y-58853899D02*
X117783622Y-58815194D01*
X117048232Y-58079803D02*
X116777299Y-58892603D01*
X116777299Y-58892603D02*
X116506365Y-58079803D01*
X116312841Y-58079803D02*
X115809679Y-58079803D01*
X115809679Y-58079803D02*
X116080613Y-58389441D01*
X116080613Y-58389441D02*
X115964498Y-58389441D01*
X115964498Y-58389441D02*
X115887089Y-58428146D01*
X115887089Y-58428146D02*
X115848384Y-58466851D01*
X115848384Y-58466851D02*
X115809679Y-58544260D01*
X115809679Y-58544260D02*
X115809679Y-58737784D01*
X115809679Y-58737784D02*
X115848384Y-58815194D01*
X115848384Y-58815194D02*
X115887089Y-58853899D01*
X115887089Y-58853899D02*
X115964498Y-58892603D01*
X115964498Y-58892603D02*
X116196727Y-58892603D01*
X116196727Y-58892603D02*
X116274136Y-58853899D01*
X116274136Y-58853899D02*
X116312841Y-58815194D01*
X114880460Y-58118508D02*
X114957870Y-58079803D01*
X114957870Y-58079803D02*
X115073984Y-58079803D01*
X115073984Y-58079803D02*
X115190098Y-58118508D01*
X115190098Y-58118508D02*
X115267508Y-58195918D01*
X115267508Y-58195918D02*
X115306213Y-58273327D01*
X115306213Y-58273327D02*
X115344917Y-58428146D01*
X115344917Y-58428146D02*
X115344917Y-58544260D01*
X115344917Y-58544260D02*
X115306213Y-58699079D01*
X115306213Y-58699079D02*
X115267508Y-58776489D01*
X115267508Y-58776489D02*
X115190098Y-58853899D01*
X115190098Y-58853899D02*
X115073984Y-58892603D01*
X115073984Y-58892603D02*
X114996575Y-58892603D01*
X114996575Y-58892603D02*
X114880460Y-58853899D01*
X114880460Y-58853899D02*
X114841756Y-58815194D01*
X114841756Y-58815194D02*
X114841756Y-58544260D01*
X114841756Y-58544260D02*
X114996575Y-58544260D01*
X114493413Y-58892603D02*
X114493413Y-58079803D01*
X114493413Y-58079803D02*
X114028956Y-58892603D01*
X114028956Y-58892603D02*
X114028956Y-58079803D01*
X113641908Y-58892603D02*
X113641908Y-58079803D01*
X113641908Y-58079803D02*
X113448384Y-58079803D01*
X113448384Y-58079803D02*
X113332270Y-58118508D01*
X113332270Y-58118508D02*
X113254860Y-58195918D01*
X113254860Y-58195918D02*
X113216155Y-58273327D01*
X113216155Y-58273327D02*
X113177451Y-58428146D01*
X113177451Y-58428146D02*
X113177451Y-58544260D01*
X113177451Y-58544260D02*
X113216155Y-58699079D01*
X113216155Y-58699079D02*
X113254860Y-58776489D01*
X113254860Y-58776489D02*
X113332270Y-58853899D01*
X113332270Y-58853899D02*
X113448384Y-58892603D01*
X113448384Y-58892603D02*
X113641908Y-58892603D01*
X121706213Y-94992603D02*
X121706213Y-94450737D01*
X121706213Y-94528146D02*
X121667508Y-94489441D01*
X121667508Y-94489441D02*
X121590098Y-94450737D01*
X121590098Y-94450737D02*
X121473984Y-94450737D01*
X121473984Y-94450737D02*
X121396575Y-94489441D01*
X121396575Y-94489441D02*
X121357870Y-94566851D01*
X121357870Y-94566851D02*
X121357870Y-94992603D01*
X121357870Y-94566851D02*
X121319165Y-94489441D01*
X121319165Y-94489441D02*
X121241756Y-94450737D01*
X121241756Y-94450737D02*
X121125641Y-94450737D01*
X121125641Y-94450737D02*
X121048232Y-94489441D01*
X121048232Y-94489441D02*
X121009527Y-94566851D01*
X121009527Y-94566851D02*
X121009527Y-94992603D01*
X120661184Y-94953899D02*
X120583775Y-94992603D01*
X120583775Y-94992603D02*
X120428956Y-94992603D01*
X120428956Y-94992603D02*
X120351546Y-94953899D01*
X120351546Y-94953899D02*
X120312842Y-94876489D01*
X120312842Y-94876489D02*
X120312842Y-94837784D01*
X120312842Y-94837784D02*
X120351546Y-94760375D01*
X120351546Y-94760375D02*
X120428956Y-94721670D01*
X120428956Y-94721670D02*
X120545070Y-94721670D01*
X120545070Y-94721670D02*
X120622480Y-94682965D01*
X120622480Y-94682965D02*
X120661184Y-94605556D01*
X120661184Y-94605556D02*
X120661184Y-94566851D01*
X120661184Y-94566851D02*
X120622480Y-94489441D01*
X120622480Y-94489441D02*
X120545070Y-94450737D01*
X120545070Y-94450737D02*
X120428956Y-94450737D01*
X120428956Y-94450737D02*
X120351546Y-94489441D01*
X119964499Y-94450737D02*
X119964499Y-95263537D01*
X119964499Y-94489441D02*
X119887089Y-94450737D01*
X119887089Y-94450737D02*
X119732270Y-94450737D01*
X119732270Y-94450737D02*
X119654861Y-94489441D01*
X119654861Y-94489441D02*
X119616156Y-94528146D01*
X119616156Y-94528146D02*
X119577451Y-94605556D01*
X119577451Y-94605556D02*
X119577451Y-94837784D01*
X119577451Y-94837784D02*
X119616156Y-94915194D01*
X119616156Y-94915194D02*
X119654861Y-94953899D01*
X119654861Y-94953899D02*
X119732270Y-94992603D01*
X119732270Y-94992603D02*
X119887089Y-94992603D01*
X119887089Y-94992603D02*
X119964499Y-94953899D01*
X119229109Y-94992603D02*
X119229109Y-94450737D01*
X119229109Y-94528146D02*
X119190404Y-94489441D01*
X119190404Y-94489441D02*
X119112994Y-94450737D01*
X119112994Y-94450737D02*
X118996880Y-94450737D01*
X118996880Y-94450737D02*
X118919471Y-94489441D01*
X118919471Y-94489441D02*
X118880766Y-94566851D01*
X118880766Y-94566851D02*
X118880766Y-94992603D01*
X118880766Y-94566851D02*
X118842061Y-94489441D01*
X118842061Y-94489441D02*
X118764652Y-94450737D01*
X118764652Y-94450737D02*
X118648537Y-94450737D01*
X118648537Y-94450737D02*
X118571128Y-94489441D01*
X118571128Y-94489441D02*
X118532423Y-94566851D01*
X118532423Y-94566851D02*
X118532423Y-94992603D01*
X117990557Y-94179803D02*
X117913147Y-94179803D01*
X117913147Y-94179803D02*
X117835738Y-94218508D01*
X117835738Y-94218508D02*
X117797033Y-94257213D01*
X117797033Y-94257213D02*
X117758328Y-94334622D01*
X117758328Y-94334622D02*
X117719623Y-94489441D01*
X117719623Y-94489441D02*
X117719623Y-94682965D01*
X117719623Y-94682965D02*
X117758328Y-94837784D01*
X117758328Y-94837784D02*
X117797033Y-94915194D01*
X117797033Y-94915194D02*
X117835738Y-94953899D01*
X117835738Y-94953899D02*
X117913147Y-94992603D01*
X117913147Y-94992603D02*
X117990557Y-94992603D01*
X117990557Y-94992603D02*
X118067966Y-94953899D01*
X118067966Y-94953899D02*
X118106671Y-94915194D01*
X118106671Y-94915194D02*
X118145376Y-94837784D01*
X118145376Y-94837784D02*
X118184080Y-94682965D01*
X118184080Y-94682965D02*
X118184080Y-94489441D01*
X118184080Y-94489441D02*
X118145376Y-94334622D01*
X118145376Y-94334622D02*
X118106671Y-94257213D01*
X118106671Y-94257213D02*
X118067966Y-94218508D01*
X118067966Y-94218508D02*
X117990557Y-94179803D01*
X117022938Y-94450737D02*
X117022938Y-95108718D01*
X117022938Y-95108718D02*
X117061643Y-95186127D01*
X117061643Y-95186127D02*
X117100347Y-95224832D01*
X117100347Y-95224832D02*
X117177757Y-95263537D01*
X117177757Y-95263537D02*
X117293871Y-95263537D01*
X117293871Y-95263537D02*
X117371281Y-95224832D01*
X117022938Y-94953899D02*
X117100347Y-94992603D01*
X117100347Y-94992603D02*
X117255166Y-94992603D01*
X117255166Y-94992603D02*
X117332576Y-94953899D01*
X117332576Y-94953899D02*
X117371281Y-94915194D01*
X117371281Y-94915194D02*
X117409985Y-94837784D01*
X117409985Y-94837784D02*
X117409985Y-94605556D01*
X117409985Y-94605556D02*
X117371281Y-94528146D01*
X117371281Y-94528146D02*
X117332576Y-94489441D01*
X117332576Y-94489441D02*
X117255166Y-94450737D01*
X117255166Y-94450737D02*
X117100347Y-94450737D01*
X117100347Y-94450737D02*
X117022938Y-94489441D01*
X116713300Y-94179803D02*
X116210138Y-94179803D01*
X116210138Y-94179803D02*
X116481072Y-94489441D01*
X116481072Y-94489441D02*
X116364957Y-94489441D01*
X116364957Y-94489441D02*
X116287548Y-94528146D01*
X116287548Y-94528146D02*
X116248843Y-94566851D01*
X116248843Y-94566851D02*
X116210138Y-94644260D01*
X116210138Y-94644260D02*
X116210138Y-94837784D01*
X116210138Y-94837784D02*
X116248843Y-94915194D01*
X116248843Y-94915194D02*
X116287548Y-94953899D01*
X116287548Y-94953899D02*
X116364957Y-94992603D01*
X116364957Y-94992603D02*
X116597186Y-94992603D01*
X116597186Y-94992603D02*
X116674595Y-94953899D01*
X116674595Y-94953899D02*
X116713300Y-94915194D01*
X115474748Y-94179803D02*
X115861796Y-94179803D01*
X115861796Y-94179803D02*
X115900500Y-94566851D01*
X115900500Y-94566851D02*
X115861796Y-94528146D01*
X115861796Y-94528146D02*
X115784386Y-94489441D01*
X115784386Y-94489441D02*
X115590862Y-94489441D01*
X115590862Y-94489441D02*
X115513453Y-94528146D01*
X115513453Y-94528146D02*
X115474748Y-94566851D01*
X115474748Y-94566851D02*
X115436043Y-94644260D01*
X115436043Y-94644260D02*
X115436043Y-94837784D01*
X115436043Y-94837784D02*
X115474748Y-94915194D01*
X115474748Y-94915194D02*
X115513453Y-94953899D01*
X115513453Y-94953899D02*
X115590862Y-94992603D01*
X115590862Y-94992603D02*
X115784386Y-94992603D01*
X115784386Y-94992603D02*
X115861796Y-94953899D01*
X115861796Y-94953899D02*
X115900500Y-94915194D01*
X114932882Y-94179803D02*
X114855472Y-94179803D01*
X114855472Y-94179803D02*
X114778063Y-94218508D01*
X114778063Y-94218508D02*
X114739358Y-94257213D01*
X114739358Y-94257213D02*
X114700653Y-94334622D01*
X114700653Y-94334622D02*
X114661948Y-94489441D01*
X114661948Y-94489441D02*
X114661948Y-94682965D01*
X114661948Y-94682965D02*
X114700653Y-94837784D01*
X114700653Y-94837784D02*
X114739358Y-94915194D01*
X114739358Y-94915194D02*
X114778063Y-94953899D01*
X114778063Y-94953899D02*
X114855472Y-94992603D01*
X114855472Y-94992603D02*
X114932882Y-94992603D01*
X114932882Y-94992603D02*
X115010291Y-94953899D01*
X115010291Y-94953899D02*
X115048996Y-94915194D01*
X115048996Y-94915194D02*
X115087701Y-94837784D01*
X115087701Y-94837784D02*
X115126405Y-94682965D01*
X115126405Y-94682965D02*
X115126405Y-94489441D01*
X115126405Y-94489441D02*
X115087701Y-94334622D01*
X115087701Y-94334622D02*
X115048996Y-94257213D01*
X115048996Y-94257213D02*
X115010291Y-94218508D01*
X115010291Y-94218508D02*
X114932882Y-94179803D01*
X114391015Y-94179803D02*
X113849149Y-94179803D01*
X113849149Y-94179803D02*
X114197491Y-94992603D01*
X122806213Y-58692603D02*
X122806213Y-57879803D01*
X122806213Y-57879803D02*
X122612689Y-57879803D01*
X122612689Y-57879803D02*
X122496575Y-57918508D01*
X122496575Y-57918508D02*
X122419165Y-57995918D01*
X122419165Y-57995918D02*
X122380460Y-58073327D01*
X122380460Y-58073327D02*
X122341756Y-58228146D01*
X122341756Y-58228146D02*
X122341756Y-58344260D01*
X122341756Y-58344260D02*
X122380460Y-58499079D01*
X122380460Y-58499079D02*
X122419165Y-58576489D01*
X122419165Y-58576489D02*
X122496575Y-58653899D01*
X122496575Y-58653899D02*
X122612689Y-58692603D01*
X122612689Y-58692603D02*
X122806213Y-58692603D01*
X121993413Y-58692603D02*
X121993413Y-57879803D01*
X121451546Y-57879803D02*
X121296727Y-57879803D01*
X121296727Y-57879803D02*
X121219317Y-57918508D01*
X121219317Y-57918508D02*
X121141908Y-57995918D01*
X121141908Y-57995918D02*
X121103203Y-58150737D01*
X121103203Y-58150737D02*
X121103203Y-58421670D01*
X121103203Y-58421670D02*
X121141908Y-58576489D01*
X121141908Y-58576489D02*
X121219317Y-58653899D01*
X121219317Y-58653899D02*
X121296727Y-58692603D01*
X121296727Y-58692603D02*
X121451546Y-58692603D01*
X121451546Y-58692603D02*
X121528955Y-58653899D01*
X121528955Y-58653899D02*
X121606365Y-58576489D01*
X121606365Y-58576489D02*
X121645069Y-58421670D01*
X121645069Y-58421670D02*
X121645069Y-58150737D01*
X121645069Y-58150737D02*
X121606365Y-57995918D01*
X121606365Y-57995918D02*
X121528955Y-57918508D01*
X121528955Y-57918508D02*
X121451546Y-57879803D01*
X119941756Y-58615194D02*
X119980460Y-58653899D01*
X119980460Y-58653899D02*
X120096575Y-58692603D01*
X120096575Y-58692603D02*
X120173984Y-58692603D01*
X120173984Y-58692603D02*
X120290098Y-58653899D01*
X120290098Y-58653899D02*
X120367508Y-58576489D01*
X120367508Y-58576489D02*
X120406213Y-58499079D01*
X120406213Y-58499079D02*
X120444917Y-58344260D01*
X120444917Y-58344260D02*
X120444917Y-58228146D01*
X120444917Y-58228146D02*
X120406213Y-58073327D01*
X120406213Y-58073327D02*
X120367508Y-57995918D01*
X120367508Y-57995918D02*
X120290098Y-57918508D01*
X120290098Y-57918508D02*
X120173984Y-57879803D01*
X120173984Y-57879803D02*
X120096575Y-57879803D01*
X120096575Y-57879803D02*
X119980460Y-57918508D01*
X119980460Y-57918508D02*
X119941756Y-57957213D01*
X119206365Y-58692603D02*
X119593413Y-58692603D01*
X119593413Y-58692603D02*
X119593413Y-57879803D01*
X118935432Y-58692603D02*
X118935432Y-57879803D01*
X118470975Y-58692603D02*
X118819317Y-58228146D01*
X118470975Y-57879803D02*
X118935432Y-58344260D01*
%LPC*%
G36*
X127850000Y-94830000D02*
G01*
X126150000Y-94830000D01*
X126150000Y-93130000D01*
X127850000Y-93130000D01*
X127850000Y-94830000D01*
G37*
G36*
X109466742Y-93166601D02*
G01*
X109620687Y-93230367D01*
X109759234Y-93322941D01*
X109877059Y-93440766D01*
X109969633Y-93579313D01*
X110033399Y-93733258D01*
X110065907Y-93896685D01*
X110065907Y-94063315D01*
X110033399Y-94226742D01*
X109969633Y-94380687D01*
X109877059Y-94519234D01*
X109759234Y-94637059D01*
X109620687Y-94729633D01*
X109466742Y-94793399D01*
X109303315Y-94825907D01*
X109136685Y-94825907D01*
X108973258Y-94793399D01*
X108819313Y-94729633D01*
X108680766Y-94637059D01*
X108562941Y-94519234D01*
X108470367Y-94380687D01*
X108406601Y-94226742D01*
X108374093Y-94063315D01*
X108374093Y-93896685D01*
X108406601Y-93733258D01*
X108470367Y-93579313D01*
X108562941Y-93440766D01*
X108680766Y-93322941D01*
X108819313Y-93230367D01*
X108973258Y-93166601D01*
X109136685Y-93134093D01*
X109303315Y-93134093D01*
X109466742Y-93166601D01*
G37*
G36*
X109466742Y-90626601D02*
G01*
X109620687Y-90690367D01*
X109759234Y-90782941D01*
X109877059Y-90900766D01*
X109969633Y-91039313D01*
X110033399Y-91193258D01*
X110065907Y-91356685D01*
X110065907Y-91523315D01*
X110033399Y-91686742D01*
X109969633Y-91840687D01*
X109877059Y-91979234D01*
X109759234Y-92097059D01*
X109620687Y-92189633D01*
X109466742Y-92253399D01*
X109303315Y-92285907D01*
X109136685Y-92285907D01*
X108973258Y-92253399D01*
X108819313Y-92189633D01*
X108680766Y-92097059D01*
X108562941Y-91979234D01*
X108470367Y-91840687D01*
X108406601Y-91686742D01*
X108374093Y-91523315D01*
X108374093Y-91356685D01*
X108406601Y-91193258D01*
X108470367Y-91039313D01*
X108562941Y-90900766D01*
X108680766Y-90782941D01*
X108819313Y-90690367D01*
X108973258Y-90626601D01*
X109136685Y-90594093D01*
X109303315Y-90594093D01*
X109466742Y-90626601D01*
G37*
G36*
X127246742Y-90626601D02*
G01*
X127400687Y-90690367D01*
X127539234Y-90782941D01*
X127657059Y-90900766D01*
X127749633Y-91039313D01*
X127813399Y-91193258D01*
X127845907Y-91356685D01*
X127845907Y-91523315D01*
X127813399Y-91686742D01*
X127749633Y-91840687D01*
X127657059Y-91979234D01*
X127539234Y-92097059D01*
X127400687Y-92189633D01*
X127246742Y-92253399D01*
X127083315Y-92285907D01*
X126916685Y-92285907D01*
X126753258Y-92253399D01*
X126599313Y-92189633D01*
X126460766Y-92097059D01*
X126342941Y-91979234D01*
X126250367Y-91840687D01*
X126186601Y-91686742D01*
X126154093Y-91523315D01*
X126154093Y-91356685D01*
X126186601Y-91193258D01*
X126250367Y-91039313D01*
X126342941Y-90900766D01*
X126460766Y-90782941D01*
X126599313Y-90690367D01*
X126753258Y-90626601D01*
X126916685Y-90594093D01*
X127083315Y-90594093D01*
X127246742Y-90626601D01*
G37*
G36*
X109466742Y-88086601D02*
G01*
X109620687Y-88150367D01*
X109759234Y-88242941D01*
X109877059Y-88360766D01*
X109969633Y-88499313D01*
X110033399Y-88653258D01*
X110065907Y-88816685D01*
X110065907Y-88983315D01*
X110033399Y-89146742D01*
X109969633Y-89300687D01*
X109877059Y-89439234D01*
X109759234Y-89557059D01*
X109620687Y-89649633D01*
X109466742Y-89713399D01*
X109303315Y-89745907D01*
X109136685Y-89745907D01*
X108973258Y-89713399D01*
X108819313Y-89649633D01*
X108680766Y-89557059D01*
X108562941Y-89439234D01*
X108470367Y-89300687D01*
X108406601Y-89146742D01*
X108374093Y-88983315D01*
X108374093Y-88816685D01*
X108406601Y-88653258D01*
X108470367Y-88499313D01*
X108562941Y-88360766D01*
X108680766Y-88242941D01*
X108819313Y-88150367D01*
X108973258Y-88086601D01*
X109136685Y-88054093D01*
X109303315Y-88054093D01*
X109466742Y-88086601D01*
G37*
G36*
X127246742Y-88086601D02*
G01*
X127400687Y-88150367D01*
X127539234Y-88242941D01*
X127657059Y-88360766D01*
X127749633Y-88499313D01*
X127813399Y-88653258D01*
X127845907Y-88816685D01*
X127845907Y-88983315D01*
X127813399Y-89146742D01*
X127749633Y-89300687D01*
X127657059Y-89439234D01*
X127539234Y-89557059D01*
X127400687Y-89649633D01*
X127246742Y-89713399D01*
X127083315Y-89745907D01*
X126916685Y-89745907D01*
X126753258Y-89713399D01*
X126599313Y-89649633D01*
X126460766Y-89557059D01*
X126342941Y-89439234D01*
X126250367Y-89300687D01*
X126186601Y-89146742D01*
X126154093Y-88983315D01*
X126154093Y-88816685D01*
X126186601Y-88653258D01*
X126250367Y-88499313D01*
X126342941Y-88360766D01*
X126460766Y-88242941D01*
X126599313Y-88150367D01*
X126753258Y-88086601D01*
X126916685Y-88054093D01*
X127083315Y-88054093D01*
X127246742Y-88086601D01*
G37*
G36*
X109466742Y-85546601D02*
G01*
X109620687Y-85610367D01*
X109759234Y-85702941D01*
X109877059Y-85820766D01*
X109969633Y-85959313D01*
X110033399Y-86113258D01*
X110065907Y-86276685D01*
X110065907Y-86443315D01*
X110033399Y-86606742D01*
X109969633Y-86760687D01*
X109877059Y-86899234D01*
X109759234Y-87017059D01*
X109620687Y-87109633D01*
X109466742Y-87173399D01*
X109303315Y-87205907D01*
X109136685Y-87205907D01*
X108973258Y-87173399D01*
X108819313Y-87109633D01*
X108680766Y-87017059D01*
X108562941Y-86899234D01*
X108470367Y-86760687D01*
X108406601Y-86606742D01*
X108374093Y-86443315D01*
X108374093Y-86276685D01*
X108406601Y-86113258D01*
X108470367Y-85959313D01*
X108562941Y-85820766D01*
X108680766Y-85702941D01*
X108819313Y-85610367D01*
X108973258Y-85546601D01*
X109136685Y-85514093D01*
X109303315Y-85514093D01*
X109466742Y-85546601D01*
G37*
G36*
X127246742Y-85546601D02*
G01*
X127400687Y-85610367D01*
X127539234Y-85702941D01*
X127657059Y-85820766D01*
X127749633Y-85959313D01*
X127813399Y-86113258D01*
X127845907Y-86276685D01*
X127845907Y-86443315D01*
X127813399Y-86606742D01*
X127749633Y-86760687D01*
X127657059Y-86899234D01*
X127539234Y-87017059D01*
X127400687Y-87109633D01*
X127246742Y-87173399D01*
X127083315Y-87205907D01*
X126916685Y-87205907D01*
X126753258Y-87173399D01*
X126599313Y-87109633D01*
X126460766Y-87017059D01*
X126342941Y-86899234D01*
X126250367Y-86760687D01*
X126186601Y-86606742D01*
X126154093Y-86443315D01*
X126154093Y-86276685D01*
X126186601Y-86113258D01*
X126250367Y-85959313D01*
X126342941Y-85820766D01*
X126460766Y-85702941D01*
X126599313Y-85610367D01*
X126753258Y-85546601D01*
X126916685Y-85514093D01*
X127083315Y-85514093D01*
X127246742Y-85546601D01*
G37*
G36*
X109466742Y-83006601D02*
G01*
X109620687Y-83070367D01*
X109759234Y-83162941D01*
X109877059Y-83280766D01*
X109969633Y-83419313D01*
X110033399Y-83573258D01*
X110065907Y-83736685D01*
X110065907Y-83903315D01*
X110033399Y-84066742D01*
X109969633Y-84220687D01*
X109877059Y-84359234D01*
X109759234Y-84477059D01*
X109620687Y-84569633D01*
X109466742Y-84633399D01*
X109303315Y-84665907D01*
X109136685Y-84665907D01*
X108973258Y-84633399D01*
X108819313Y-84569633D01*
X108680766Y-84477059D01*
X108562941Y-84359234D01*
X108470367Y-84220687D01*
X108406601Y-84066742D01*
X108374093Y-83903315D01*
X108374093Y-83736685D01*
X108406601Y-83573258D01*
X108470367Y-83419313D01*
X108562941Y-83280766D01*
X108680766Y-83162941D01*
X108819313Y-83070367D01*
X108973258Y-83006601D01*
X109136685Y-82974093D01*
X109303315Y-82974093D01*
X109466742Y-83006601D01*
G37*
G36*
X127246742Y-83006601D02*
G01*
X127400687Y-83070367D01*
X127539234Y-83162941D01*
X127657059Y-83280766D01*
X127749633Y-83419313D01*
X127813399Y-83573258D01*
X127845907Y-83736685D01*
X127845907Y-83903315D01*
X127813399Y-84066742D01*
X127749633Y-84220687D01*
X127657059Y-84359234D01*
X127539234Y-84477059D01*
X127400687Y-84569633D01*
X127246742Y-84633399D01*
X127083315Y-84665907D01*
X126916685Y-84665907D01*
X126753258Y-84633399D01*
X126599313Y-84569633D01*
X126460766Y-84477059D01*
X126342941Y-84359234D01*
X126250367Y-84220687D01*
X126186601Y-84066742D01*
X126154093Y-83903315D01*
X126154093Y-83736685D01*
X126186601Y-83573258D01*
X126250367Y-83419313D01*
X126342941Y-83280766D01*
X126460766Y-83162941D01*
X126599313Y-83070367D01*
X126753258Y-83006601D01*
X126916685Y-82974093D01*
X127083315Y-82974093D01*
X127246742Y-83006601D01*
G37*
G36*
X109466742Y-80466601D02*
G01*
X109620687Y-80530367D01*
X109759234Y-80622941D01*
X109877059Y-80740766D01*
X109969633Y-80879313D01*
X110033399Y-81033258D01*
X110065907Y-81196685D01*
X110065907Y-81363315D01*
X110033399Y-81526742D01*
X109969633Y-81680687D01*
X109877059Y-81819234D01*
X109759234Y-81937059D01*
X109620687Y-82029633D01*
X109466742Y-82093399D01*
X109303315Y-82125907D01*
X109136685Y-82125907D01*
X108973258Y-82093399D01*
X108819313Y-82029633D01*
X108680766Y-81937059D01*
X108562941Y-81819234D01*
X108470367Y-81680687D01*
X108406601Y-81526742D01*
X108374093Y-81363315D01*
X108374093Y-81196685D01*
X108406601Y-81033258D01*
X108470367Y-80879313D01*
X108562941Y-80740766D01*
X108680766Y-80622941D01*
X108819313Y-80530367D01*
X108973258Y-80466601D01*
X109136685Y-80434093D01*
X109303315Y-80434093D01*
X109466742Y-80466601D01*
G37*
G36*
X127246742Y-80466601D02*
G01*
X127400687Y-80530367D01*
X127539234Y-80622941D01*
X127657059Y-80740766D01*
X127749633Y-80879313D01*
X127813399Y-81033258D01*
X127845907Y-81196685D01*
X127845907Y-81363315D01*
X127813399Y-81526742D01*
X127749633Y-81680687D01*
X127657059Y-81819234D01*
X127539234Y-81937059D01*
X127400687Y-82029633D01*
X127246742Y-82093399D01*
X127083315Y-82125907D01*
X126916685Y-82125907D01*
X126753258Y-82093399D01*
X126599313Y-82029633D01*
X126460766Y-81937059D01*
X126342941Y-81819234D01*
X126250367Y-81680687D01*
X126186601Y-81526742D01*
X126154093Y-81363315D01*
X126154093Y-81196685D01*
X126186601Y-81033258D01*
X126250367Y-80879313D01*
X126342941Y-80740766D01*
X126460766Y-80622941D01*
X126599313Y-80530367D01*
X126753258Y-80466601D01*
X126916685Y-80434093D01*
X127083315Y-80434093D01*
X127246742Y-80466601D01*
G37*
G36*
X109466742Y-77926601D02*
G01*
X109620687Y-77990367D01*
X109759234Y-78082941D01*
X109877059Y-78200766D01*
X109969633Y-78339313D01*
X110033399Y-78493258D01*
X110065907Y-78656685D01*
X110065907Y-78823315D01*
X110033399Y-78986742D01*
X109969633Y-79140687D01*
X109877059Y-79279234D01*
X109759234Y-79397059D01*
X109620687Y-79489633D01*
X109466742Y-79553399D01*
X109303315Y-79585907D01*
X109136685Y-79585907D01*
X108973258Y-79553399D01*
X108819313Y-79489633D01*
X108680766Y-79397059D01*
X108562941Y-79279234D01*
X108470367Y-79140687D01*
X108406601Y-78986742D01*
X108374093Y-78823315D01*
X108374093Y-78656685D01*
X108406601Y-78493258D01*
X108470367Y-78339313D01*
X108562941Y-78200766D01*
X108680766Y-78082941D01*
X108819313Y-77990367D01*
X108973258Y-77926601D01*
X109136685Y-77894093D01*
X109303315Y-77894093D01*
X109466742Y-77926601D01*
G37*
G36*
X127246742Y-77926601D02*
G01*
X127400687Y-77990367D01*
X127539234Y-78082941D01*
X127657059Y-78200766D01*
X127749633Y-78339313D01*
X127813399Y-78493258D01*
X127845907Y-78656685D01*
X127845907Y-78823315D01*
X127813399Y-78986742D01*
X127749633Y-79140687D01*
X127657059Y-79279234D01*
X127539234Y-79397059D01*
X127400687Y-79489633D01*
X127246742Y-79553399D01*
X127083315Y-79585907D01*
X126916685Y-79585907D01*
X126753258Y-79553399D01*
X126599313Y-79489633D01*
X126460766Y-79397059D01*
X126342941Y-79279234D01*
X126250367Y-79140687D01*
X126186601Y-78986742D01*
X126154093Y-78823315D01*
X126154093Y-78656685D01*
X126186601Y-78493258D01*
X126250367Y-78339313D01*
X126342941Y-78200766D01*
X126460766Y-78082941D01*
X126599313Y-77990367D01*
X126753258Y-77926601D01*
X126916685Y-77894093D01*
X127083315Y-77894093D01*
X127246742Y-77926601D01*
G37*
G36*
X109466742Y-75386601D02*
G01*
X109620687Y-75450367D01*
X109759234Y-75542941D01*
X109877059Y-75660766D01*
X109969633Y-75799313D01*
X110033399Y-75953258D01*
X110065907Y-76116685D01*
X110065907Y-76283315D01*
X110033399Y-76446742D01*
X109969633Y-76600687D01*
X109877059Y-76739234D01*
X109759234Y-76857059D01*
X109620687Y-76949633D01*
X109466742Y-77013399D01*
X109303315Y-77045907D01*
X109136685Y-77045907D01*
X108973258Y-77013399D01*
X108819313Y-76949633D01*
X108680766Y-76857059D01*
X108562941Y-76739234D01*
X108470367Y-76600687D01*
X108406601Y-76446742D01*
X108374093Y-76283315D01*
X108374093Y-76116685D01*
X108406601Y-75953258D01*
X108470367Y-75799313D01*
X108562941Y-75660766D01*
X108680766Y-75542941D01*
X108819313Y-75450367D01*
X108973258Y-75386601D01*
X109136685Y-75354093D01*
X109303315Y-75354093D01*
X109466742Y-75386601D01*
G37*
G36*
X127246742Y-75386601D02*
G01*
X127400687Y-75450367D01*
X127539234Y-75542941D01*
X127657059Y-75660766D01*
X127749633Y-75799313D01*
X127813399Y-75953258D01*
X127845907Y-76116685D01*
X127845907Y-76283315D01*
X127813399Y-76446742D01*
X127749633Y-76600687D01*
X127657059Y-76739234D01*
X127539234Y-76857059D01*
X127400687Y-76949633D01*
X127246742Y-77013399D01*
X127083315Y-77045907D01*
X126916685Y-77045907D01*
X126753258Y-77013399D01*
X126599313Y-76949633D01*
X126460766Y-76857059D01*
X126342941Y-76739234D01*
X126250367Y-76600687D01*
X126186601Y-76446742D01*
X126154093Y-76283315D01*
X126154093Y-76116685D01*
X126186601Y-75953258D01*
X126250367Y-75799313D01*
X126342941Y-75660766D01*
X126460766Y-75542941D01*
X126599313Y-75450367D01*
X126753258Y-75386601D01*
X126916685Y-75354093D01*
X127083315Y-75354093D01*
X127246742Y-75386601D01*
G37*
G36*
X109466742Y-72846601D02*
G01*
X109620687Y-72910367D01*
X109759234Y-73002941D01*
X109877059Y-73120766D01*
X109969633Y-73259313D01*
X110033399Y-73413258D01*
X110065907Y-73576685D01*
X110065907Y-73743315D01*
X110033399Y-73906742D01*
X109969633Y-74060687D01*
X109877059Y-74199234D01*
X109759234Y-74317059D01*
X109620687Y-74409633D01*
X109466742Y-74473399D01*
X109303315Y-74505907D01*
X109136685Y-74505907D01*
X108973258Y-74473399D01*
X108819313Y-74409633D01*
X108680766Y-74317059D01*
X108562941Y-74199234D01*
X108470367Y-74060687D01*
X108406601Y-73906742D01*
X108374093Y-73743315D01*
X108374093Y-73576685D01*
X108406601Y-73413258D01*
X108470367Y-73259313D01*
X108562941Y-73120766D01*
X108680766Y-73002941D01*
X108819313Y-72910367D01*
X108973258Y-72846601D01*
X109136685Y-72814093D01*
X109303315Y-72814093D01*
X109466742Y-72846601D01*
G37*
G36*
X127246742Y-72846601D02*
G01*
X127400687Y-72910367D01*
X127539234Y-73002941D01*
X127657059Y-73120766D01*
X127749633Y-73259313D01*
X127813399Y-73413258D01*
X127845907Y-73576685D01*
X127845907Y-73743315D01*
X127813399Y-73906742D01*
X127749633Y-74060687D01*
X127657059Y-74199234D01*
X127539234Y-74317059D01*
X127400687Y-74409633D01*
X127246742Y-74473399D01*
X127083315Y-74505907D01*
X126916685Y-74505907D01*
X126753258Y-74473399D01*
X126599313Y-74409633D01*
X126460766Y-74317059D01*
X126342941Y-74199234D01*
X126250367Y-74060687D01*
X126186601Y-73906742D01*
X126154093Y-73743315D01*
X126154093Y-73576685D01*
X126186601Y-73413258D01*
X126250367Y-73259313D01*
X126342941Y-73120766D01*
X126460766Y-73002941D01*
X126599313Y-72910367D01*
X126753258Y-72846601D01*
X126916685Y-72814093D01*
X127083315Y-72814093D01*
X127246742Y-72846601D01*
G37*
G36*
X109466742Y-70306601D02*
G01*
X109620687Y-70370367D01*
X109759234Y-70462941D01*
X109877059Y-70580766D01*
X109969633Y-70719313D01*
X110033399Y-70873258D01*
X110065907Y-71036685D01*
X110065907Y-71203315D01*
X110033399Y-71366742D01*
X109969633Y-71520687D01*
X109877059Y-71659234D01*
X109759234Y-71777059D01*
X109620687Y-71869633D01*
X109466742Y-71933399D01*
X109303315Y-71965907D01*
X109136685Y-71965907D01*
X108973258Y-71933399D01*
X108819313Y-71869633D01*
X108680766Y-71777059D01*
X108562941Y-71659234D01*
X108470367Y-71520687D01*
X108406601Y-71366742D01*
X108374093Y-71203315D01*
X108374093Y-71036685D01*
X108406601Y-70873258D01*
X108470367Y-70719313D01*
X108562941Y-70580766D01*
X108680766Y-70462941D01*
X108819313Y-70370367D01*
X108973258Y-70306601D01*
X109136685Y-70274093D01*
X109303315Y-70274093D01*
X109466742Y-70306601D01*
G37*
G36*
X127246742Y-70306601D02*
G01*
X127400687Y-70370367D01*
X127539234Y-70462941D01*
X127657059Y-70580766D01*
X127749633Y-70719313D01*
X127813399Y-70873258D01*
X127845907Y-71036685D01*
X127845907Y-71203315D01*
X127813399Y-71366742D01*
X127749633Y-71520687D01*
X127657059Y-71659234D01*
X127539234Y-71777059D01*
X127400687Y-71869633D01*
X127246742Y-71933399D01*
X127083315Y-71965907D01*
X126916685Y-71965907D01*
X126753258Y-71933399D01*
X126599313Y-71869633D01*
X126460766Y-71777059D01*
X126342941Y-71659234D01*
X126250367Y-71520687D01*
X126186601Y-71366742D01*
X126154093Y-71203315D01*
X126154093Y-71036685D01*
X126186601Y-70873258D01*
X126250367Y-70719313D01*
X126342941Y-70580766D01*
X126460766Y-70462941D01*
X126599313Y-70370367D01*
X126753258Y-70306601D01*
X126916685Y-70274093D01*
X127083315Y-70274093D01*
X127246742Y-70306601D01*
G37*
G36*
X109466742Y-67766601D02*
G01*
X109620687Y-67830367D01*
X109759234Y-67922941D01*
X109877059Y-68040766D01*
X109969633Y-68179313D01*
X110033399Y-68333258D01*
X110065907Y-68496685D01*
X110065907Y-68663315D01*
X110033399Y-68826742D01*
X109969633Y-68980687D01*
X109877059Y-69119234D01*
X109759234Y-69237059D01*
X109620687Y-69329633D01*
X109466742Y-69393399D01*
X109303315Y-69425907D01*
X109136685Y-69425907D01*
X108973258Y-69393399D01*
X108819313Y-69329633D01*
X108680766Y-69237059D01*
X108562941Y-69119234D01*
X108470367Y-68980687D01*
X108406601Y-68826742D01*
X108374093Y-68663315D01*
X108374093Y-68496685D01*
X108406601Y-68333258D01*
X108470367Y-68179313D01*
X108562941Y-68040766D01*
X108680766Y-67922941D01*
X108819313Y-67830367D01*
X108973258Y-67766601D01*
X109136685Y-67734093D01*
X109303315Y-67734093D01*
X109466742Y-67766601D01*
G37*
G36*
X127246742Y-67766601D02*
G01*
X127400687Y-67830367D01*
X127539234Y-67922941D01*
X127657059Y-68040766D01*
X127749633Y-68179313D01*
X127813399Y-68333258D01*
X127845907Y-68496685D01*
X127845907Y-68663315D01*
X127813399Y-68826742D01*
X127749633Y-68980687D01*
X127657059Y-69119234D01*
X127539234Y-69237059D01*
X127400687Y-69329633D01*
X127246742Y-69393399D01*
X127083315Y-69425907D01*
X126916685Y-69425907D01*
X126753258Y-69393399D01*
X126599313Y-69329633D01*
X126460766Y-69237059D01*
X126342941Y-69119234D01*
X126250367Y-68980687D01*
X126186601Y-68826742D01*
X126154093Y-68663315D01*
X126154093Y-68496685D01*
X126186601Y-68333258D01*
X126250367Y-68179313D01*
X126342941Y-68040766D01*
X126460766Y-67922941D01*
X126599313Y-67830367D01*
X126753258Y-67766601D01*
X126916685Y-67734093D01*
X127083315Y-67734093D01*
X127246742Y-67766601D01*
G37*
G36*
X109466742Y-65226601D02*
G01*
X109620687Y-65290367D01*
X109759234Y-65382941D01*
X109877059Y-65500766D01*
X109969633Y-65639313D01*
X110033399Y-65793258D01*
X110065907Y-65956685D01*
X110065907Y-66123315D01*
X110033399Y-66286742D01*
X109969633Y-66440687D01*
X109877059Y-66579234D01*
X109759234Y-66697059D01*
X109620687Y-66789633D01*
X109466742Y-66853399D01*
X109303315Y-66885907D01*
X109136685Y-66885907D01*
X108973258Y-66853399D01*
X108819313Y-66789633D01*
X108680766Y-66697059D01*
X108562941Y-66579234D01*
X108470367Y-66440687D01*
X108406601Y-66286742D01*
X108374093Y-66123315D01*
X108374093Y-65956685D01*
X108406601Y-65793258D01*
X108470367Y-65639313D01*
X108562941Y-65500766D01*
X108680766Y-65382941D01*
X108819313Y-65290367D01*
X108973258Y-65226601D01*
X109136685Y-65194093D01*
X109303315Y-65194093D01*
X109466742Y-65226601D01*
G37*
G36*
X127246742Y-65226601D02*
G01*
X127400687Y-65290367D01*
X127539234Y-65382941D01*
X127657059Y-65500766D01*
X127749633Y-65639313D01*
X127813399Y-65793258D01*
X127845907Y-65956685D01*
X127845907Y-66123315D01*
X127813399Y-66286742D01*
X127749633Y-66440687D01*
X127657059Y-66579234D01*
X127539234Y-66697059D01*
X127400687Y-66789633D01*
X127246742Y-66853399D01*
X127083315Y-66885907D01*
X126916685Y-66885907D01*
X126753258Y-66853399D01*
X126599313Y-66789633D01*
X126460766Y-66697059D01*
X126342941Y-66579234D01*
X126250367Y-66440687D01*
X126186601Y-66286742D01*
X126154093Y-66123315D01*
X126154093Y-65956685D01*
X126186601Y-65793258D01*
X126250367Y-65639313D01*
X126342941Y-65500766D01*
X126460766Y-65382941D01*
X126599313Y-65290367D01*
X126753258Y-65226601D01*
X126916685Y-65194093D01*
X127083315Y-65194093D01*
X127246742Y-65226601D01*
G37*
G36*
X109466742Y-62686601D02*
G01*
X109620687Y-62750367D01*
X109759234Y-62842941D01*
X109877059Y-62960766D01*
X109969633Y-63099313D01*
X110033399Y-63253258D01*
X110065907Y-63416685D01*
X110065907Y-63583315D01*
X110033399Y-63746742D01*
X109969633Y-63900687D01*
X109877059Y-64039234D01*
X109759234Y-64157059D01*
X109620687Y-64249633D01*
X109466742Y-64313399D01*
X109303315Y-64345907D01*
X109136685Y-64345907D01*
X108973258Y-64313399D01*
X108819313Y-64249633D01*
X108680766Y-64157059D01*
X108562941Y-64039234D01*
X108470367Y-63900687D01*
X108406601Y-63746742D01*
X108374093Y-63583315D01*
X108374093Y-63416685D01*
X108406601Y-63253258D01*
X108470367Y-63099313D01*
X108562941Y-62960766D01*
X108680766Y-62842941D01*
X108819313Y-62750367D01*
X108973258Y-62686601D01*
X109136685Y-62654093D01*
X109303315Y-62654093D01*
X109466742Y-62686601D01*
G37*
G36*
X127246742Y-62686601D02*
G01*
X127400687Y-62750367D01*
X127539234Y-62842941D01*
X127657059Y-62960766D01*
X127749633Y-63099313D01*
X127813399Y-63253258D01*
X127845907Y-63416685D01*
X127845907Y-63583315D01*
X127813399Y-63746742D01*
X127749633Y-63900687D01*
X127657059Y-64039234D01*
X127539234Y-64157059D01*
X127400687Y-64249633D01*
X127246742Y-64313399D01*
X127083315Y-64345907D01*
X126916685Y-64345907D01*
X126753258Y-64313399D01*
X126599313Y-64249633D01*
X126460766Y-64157059D01*
X126342941Y-64039234D01*
X126250367Y-63900687D01*
X126186601Y-63746742D01*
X126154093Y-63583315D01*
X126154093Y-63416685D01*
X126186601Y-63253258D01*
X126250367Y-63099313D01*
X126342941Y-62960766D01*
X126460766Y-62842941D01*
X126599313Y-62750367D01*
X126753258Y-62686601D01*
X126916685Y-62654093D01*
X127083315Y-62654093D01*
X127246742Y-62686601D01*
G37*
G36*
X109466742Y-60146601D02*
G01*
X109620687Y-60210367D01*
X109759234Y-60302941D01*
X109877059Y-60420766D01*
X109969633Y-60559313D01*
X110033399Y-60713258D01*
X110065907Y-60876685D01*
X110065907Y-61043315D01*
X110033399Y-61206742D01*
X109969633Y-61360687D01*
X109877059Y-61499234D01*
X109759234Y-61617059D01*
X109620687Y-61709633D01*
X109466742Y-61773399D01*
X109303315Y-61805907D01*
X109136685Y-61805907D01*
X108973258Y-61773399D01*
X108819313Y-61709633D01*
X108680766Y-61617059D01*
X108562941Y-61499234D01*
X108470367Y-61360687D01*
X108406601Y-61206742D01*
X108374093Y-61043315D01*
X108374093Y-60876685D01*
X108406601Y-60713258D01*
X108470367Y-60559313D01*
X108562941Y-60420766D01*
X108680766Y-60302941D01*
X108819313Y-60210367D01*
X108973258Y-60146601D01*
X109136685Y-60114093D01*
X109303315Y-60114093D01*
X109466742Y-60146601D01*
G37*
G36*
X127246742Y-60146601D02*
G01*
X127400687Y-60210367D01*
X127539234Y-60302941D01*
X127657059Y-60420766D01*
X127749633Y-60559313D01*
X127813399Y-60713258D01*
X127845907Y-60876685D01*
X127845907Y-61043315D01*
X127813399Y-61206742D01*
X127749633Y-61360687D01*
X127657059Y-61499234D01*
X127539234Y-61617059D01*
X127400687Y-61709633D01*
X127246742Y-61773399D01*
X127083315Y-61805907D01*
X126916685Y-61805907D01*
X126753258Y-61773399D01*
X126599313Y-61709633D01*
X126460766Y-61617059D01*
X126342941Y-61499234D01*
X126250367Y-61360687D01*
X126186601Y-61206742D01*
X126154093Y-61043315D01*
X126154093Y-60876685D01*
X126186601Y-60713258D01*
X126250367Y-60559313D01*
X126342941Y-60420766D01*
X126460766Y-60302941D01*
X126599313Y-60210367D01*
X126753258Y-60146601D01*
X126916685Y-60114093D01*
X127083315Y-60114093D01*
X127246742Y-60146601D01*
G37*
G36*
X110070000Y-59270000D02*
G01*
X108370000Y-59270000D01*
X108370000Y-57570000D01*
X110070000Y-57570000D01*
X110070000Y-59270000D01*
G37*
G36*
X127246742Y-57606601D02*
G01*
X127400687Y-57670367D01*
X127539234Y-57762941D01*
X127657059Y-57880766D01*
X127749633Y-58019313D01*
X127813399Y-58173258D01*
X127845907Y-58336685D01*
X127845907Y-58503315D01*
X127813399Y-58666742D01*
X127749633Y-58820687D01*
X127657059Y-58959234D01*
X127539234Y-59077059D01*
X127400687Y-59169633D01*
X127246742Y-59233399D01*
X127083315Y-59265907D01*
X126916685Y-59265907D01*
X126753258Y-59233399D01*
X126599313Y-59169633D01*
X126460766Y-59077059D01*
X126342941Y-58959234D01*
X126250367Y-58820687D01*
X126186601Y-58666742D01*
X126154093Y-58503315D01*
X126154093Y-58336685D01*
X126186601Y-58173258D01*
X126250367Y-58019313D01*
X126342941Y-57880766D01*
X126460766Y-57762941D01*
X126599313Y-57670367D01*
X126753258Y-57606601D01*
X126916685Y-57574093D01*
X127083315Y-57574093D01*
X127246742Y-57606601D01*
G37*
G36*
X115270000Y-57850000D02*
G01*
X113570000Y-57850000D01*
X113570000Y-56150000D01*
X115270000Y-56150000D01*
X115270000Y-57850000D01*
G37*
G36*
X117206742Y-56186601D02*
G01*
X117360687Y-56250367D01*
X117499234Y-56342941D01*
X117617059Y-56460766D01*
X117709633Y-56599313D01*
X117773399Y-56753258D01*
X117805907Y-56916685D01*
X117805907Y-57083315D01*
X117773399Y-57246742D01*
X117709633Y-57400687D01*
X117617059Y-57539234D01*
X117499234Y-57657059D01*
X117360687Y-57749633D01*
X117206742Y-57813399D01*
X117043315Y-57845907D01*
X116876685Y-57845907D01*
X116713258Y-57813399D01*
X116559313Y-57749633D01*
X116420766Y-57657059D01*
X116302941Y-57539234D01*
X116210367Y-57400687D01*
X116146601Y-57246742D01*
X116114093Y-57083315D01*
X116114093Y-56916685D01*
X116146601Y-56753258D01*
X116210367Y-56599313D01*
X116302941Y-56460766D01*
X116420766Y-56342941D01*
X116559313Y-56250367D01*
X116713258Y-56186601D01*
X116876685Y-56154093D01*
X117043315Y-56154093D01*
X117206742Y-56186601D01*
G37*
G36*
X119746742Y-56186601D02*
G01*
X119900687Y-56250367D01*
X120039234Y-56342941D01*
X120157059Y-56460766D01*
X120249633Y-56599313D01*
X120313399Y-56753258D01*
X120345907Y-56916685D01*
X120345907Y-57083315D01*
X120313399Y-57246742D01*
X120249633Y-57400687D01*
X120157059Y-57539234D01*
X120039234Y-57657059D01*
X119900687Y-57749633D01*
X119746742Y-57813399D01*
X119583315Y-57845907D01*
X119416685Y-57845907D01*
X119253258Y-57813399D01*
X119099313Y-57749633D01*
X118960766Y-57657059D01*
X118842941Y-57539234D01*
X118750367Y-57400687D01*
X118686601Y-57246742D01*
X118654093Y-57083315D01*
X118654093Y-56916685D01*
X118686601Y-56753258D01*
X118750367Y-56599313D01*
X118842941Y-56460766D01*
X118960766Y-56342941D01*
X119099313Y-56250367D01*
X119253258Y-56186601D01*
X119416685Y-56154093D01*
X119583315Y-56154093D01*
X119746742Y-56186601D01*
G37*
G36*
X122286742Y-56186601D02*
G01*
X122440687Y-56250367D01*
X122579234Y-56342941D01*
X122697059Y-56460766D01*
X122789633Y-56599313D01*
X122853399Y-56753258D01*
X122885907Y-56916685D01*
X122885907Y-57083315D01*
X122853399Y-57246742D01*
X122789633Y-57400687D01*
X122697059Y-57539234D01*
X122579234Y-57657059D01*
X122440687Y-57749633D01*
X122286742Y-57813399D01*
X122123315Y-57845907D01*
X121956685Y-57845907D01*
X121793258Y-57813399D01*
X121639313Y-57749633D01*
X121500766Y-57657059D01*
X121382941Y-57539234D01*
X121290367Y-57400687D01*
X121226601Y-57246742D01*
X121194093Y-57083315D01*
X121194093Y-56916685D01*
X121226601Y-56753258D01*
X121290367Y-56599313D01*
X121382941Y-56460766D01*
X121500766Y-56342941D01*
X121639313Y-56250367D01*
X121793258Y-56186601D01*
X121956685Y-56154093D01*
X122123315Y-56154093D01*
X122286742Y-56186601D01*
G37*
%LPD*%
M02*
