M48
; DRILL file {KiCad 9.0.7} date 2026-02-04T18:11:02+1100
; FORMAT={-:-/ absolute / metric / decimal}
; #@! TF.CreationDate,2026-02-04T18:11:02+11:00
; #@! TF.GenerationSoftware,Kicad,Pcbnew,9.0.7
; #@! TF.FileFunction,Plated,1,2,PTH
FMAT,2
METRIC
; #@! TA.AperFunction,Plated,PTH,ViaDrill
T1C0.300
; #@! TA.AperFunction,Plated,PTH,ComponentDrill
T2C1.000
%
G90
G05
T1
X107.8Y-84.061
X108.303Y-82.435
X111.605Y-87.943
X111.809Y-68.438
X111.828Y-86.202
X112.261Y-84.362
X113.04Y-83.334
X113.148Y-80.493
X113.431Y-75.949
X113.742Y-83.773
X115.063Y-76.306
X115.865Y-88.164
X115.94Y-81.993
X116.381Y-79.008
X116.49Y-76.148
X116.513Y-68.683
X116.569Y-89.813
X117.219Y-88.087
X117.34Y-79.07
X117.532Y-80.505
X118.217Y-89.348
X118.516Y-79.27
X118.611Y-82.067
X118.674Y-88.423
X119.521Y-81.993
X120.941Y-81.993
X121.212Y-59.215
X121.225Y-88.65
X123.146Y-75.254
T2
X109.22Y-58.42
X109.22Y-60.96
X109.22Y-63.5
X109.22Y-66.04
X109.22Y-68.58
X109.22Y-71.12
X109.22Y-73.66
X109.22Y-76.2
X109.22Y-78.74
X109.22Y-81.28
X109.22Y-83.82
X109.22Y-86.36
X109.22Y-88.9
X109.22Y-91.44
X109.22Y-93.98
X114.42Y-57.0
X116.96Y-57.0
X119.5Y-57.0
X122.04Y-57.0
X127.0Y-58.42
X127.0Y-60.96
X127.0Y-63.5
X127.0Y-66.04
X127.0Y-68.58
X127.0Y-71.12
X127.0Y-73.66
X127.0Y-76.2
X127.0Y-78.74
X127.0Y-81.28
X127.0Y-83.82
X127.0Y-86.36
X127.0Y-88.9
X127.0Y-91.44
X127.0Y-93.98
M30
